<?xml version="1.0" encoding="UTF-8" standalone="no"?>
<!-- Created with Inkscape (http://www.inkscape.org/) -->

<svg
   width="196.59927mm"
   height="118.44217mm"
   viewBox="0 0 196.59927 118.44217"
   version="1.1"
   id="svg1"
   xml:space="preserve"
   xmlns:inkscape="http://www.inkscape.org/namespaces/inkscape"
   xmlns:sodipodi="http://sodipodi.sourceforge.net/DTD/sodipodi-0.dtd"
   xmlns="http://www.w3.org/2000/svg"
   xmlns:svg="http://www.w3.org/2000/svg"><sodipodi:namedview
     id="namedview1"
     pagecolor="#ffffff"
     bordercolor="#000000"
     borderopacity="0.25"
     inkscape:showpageshadow="2"
     inkscape:pageopacity="0.0"
     inkscape:pagecheckerboard="0"
     inkscape:deskcolor="#d1d1d1"
     inkscape:document-units="mm"
     inkscape:zoom="0.20784345"
     inkscape:cx="755.37621"
     inkscape:cy="-428.20689"
     inkscape:window-width="1728"
     inkscape:window-height="1051"
     inkscape:window-x="0"
     inkscape:window-y="38"
     inkscape:window-maximized="1"
     inkscape:current-layer="layer1"><inkscape:page
       x="0"
       y="7.5937879e-14"
       width="196.59927"
       height="118.44216"
       id="page2"
       margin="0"
       bleed="0" /></sodipodi:namedview><defs
     id="defs1" /><g
     inkscape:label="Lager 1"
     inkscape:groupmode="layer"
     id="layer1"
     transform="translate(-346.66001,67.887592)"><rect
       style="fill:#cccccc;stroke-width:0.28763"
       id="rect1"
       width="196.5993"
       height="118.44216"
       x="346.66"
       y="-67.887589"
       rx="18.518343"
       inkscape:export-filename="pw.svg"
       inkscape:export-xdpi="25.84"
       inkscape:export-ydpi="25.84" /><path
       style="fill:#000000;stroke-width:0.819568"
       d="m 402.14886,37.700743 c -0.25689,-0.256894 -0.28539,-0.442952 -0.11628,-0.758953 0.26823,-0.501199 0.70616,-0.539194 1.07616,-0.09336 0.35101,0.422946 0.78661,0.414833 0.9526,-0.0177 0.0724,-0.188648 0.13163,-2.080073 0.13163,-4.203165 0,-3.677804 -0.0205,-3.865527 -0.4337,-3.973587 -0.66947,-0.175068 -0.51603,-0.492191 0.37948,-0.78431 0.44724,-0.145892 0.93514,-0.315837 1.08422,-0.377657 0.21117,-0.08757 0.27106,0.77954 0.27106,3.924249 0,4.476064 -0.12444,5.0594 -1.28822,6.038653 -0.784,0.659696 -1.5514,0.751422 -2.05695,0.245871 z m 101.2502,0.03983 c -1.37669,-0.599989 -1.67042,-1.804525 -0.65337,-2.679366 0.55113,-0.474054 0.56851,-0.53794 0.24396,-0.896575 -0.47412,-0.523892 -0.43913,-1.010511 0.10941,-1.521553 l 0.45888,-0.427511 -0.43042,-0.610948 c -0.67042,-0.951592 -0.74875,-1.46656 -0.36789,-2.418423 0.62017,-1.549959 1.33195,-1.7728 4.59692,-1.439154 1.1057,0.112994 1.57212,0.24851 1.57212,0.456787 0,0.18405 -0.24464,0.296126 -0.64638,0.296126 -0.63762,0 -0.64464,0.01278 -0.51765,0.939258 0.24143,1.761392 -0.95533,2.963936 -2.94965,2.963936 -0.81334,0 -0.89695,0.04885 -0.83461,0.487906 0.0638,0.44873 0.21004,0.497076 1.8226,0.602219 2.70042,0.176084 3.59413,1.073708 2.75507,2.767133 -0.74427,1.502113 -3.37606,2.257206 -5.15899,1.480165 z m 3.57341,-0.67289 c 0.73454,-0.379845 0.98948,-1.003988 0.66089,-1.617959 -0.27684,-0.517287 -1.03129,-0.755093 -2.42249,-0.763567 -1.70453,-0.01041 -2.5182,1.262971 -1.44557,2.262279 0.57989,0.540243 2.27143,0.603137 3.20717,0.119247 z m -0.87883,-5.620977 c 0.43944,-0.52949 0.51226,-1.726822 0.15679,-2.577592 -0.28097,-0.672464 -0.44089,-0.802841 -0.98475,-0.802841 -0.83467,0 -1.32442,0.681586 -1.32442,1.843177 0,1.138495 0.49197,1.843168 1.28681,1.843168 0.33642,0 0.72593,-0.137663 0.86557,-0.305912 z m -108.27171,3.117392 c -1.51138,-0.452524 -2.38957,-1.897981 -2.25802,-3.71657 0.1949,-2.694553 2.49998,-4.12815 4.82663,-3.001833 1.20368,0.582688 1.85083,1.682795 1.85083,3.146265 0,1.851127 -0.88971,3.120409 -2.49371,3.557607 -0.98854,0.269442 -1.07223,0.270081 -1.92573,0.01451 z m 2.23876,-0.955313 c 0.96922,-1.031681 1.00066,-3.915169 0.0542,-4.968314 -0.87893,-0.977983 -2.17198,-0.791121 -2.73493,0.395221 -0.68524,1.44403 -0.29329,4.298472 0.66688,4.856598 0.67382,0.39168 1.48715,0.277186 2.01388,-0.283505 z m 9.22811,0.884839 c -2.61053,-1.205717 -2.67526,-5.378164 -0.1041,-6.709799 0.91005,-0.471317 2.1956,-0.372477 3.01272,0.231643 0.50973,0.376854 1.2885,2.105988 1.05408,2.340409 -0.0536,0.0536 -1.09219,0.111338 -2.30794,0.128254 -1.21575,0.01697 -2.26055,0.111838 -2.32179,0.210916 -0.21062,0.340801 0.3726,1.975471 0.88909,2.491955 0.68942,0.689421 2.18758,0.721335 2.89563,0.06171 0.53931,-0.502445 0.90023,-0.380444 0.54422,0.18396 -0.69075,1.095058 -2.47121,1.610919 -3.66191,1.060972 z m 2.4937,-5.092716 c 0,-1.51921 -1.8539,-1.859093 -2.66363,-0.488324 -0.59838,1.012978 -0.50274,1.105254 1.14573,1.105254 h 1.5179 z m 22.5518,5.193129 c 0,-0.126779 -0.70746,-2.250469 -1.57212,-4.719304 -1.35159,-3.85911 -1.65559,-4.536557 -2.16707,-4.829192 -0.32722,-0.187214 -0.59558,-0.413571 -0.59633,-0.503018 -7.5e-4,-0.08945 0.82806,-0.162636 1.84181,-0.162636 1.01375,0 1.84317,0.05753 1.84317,0.127878 0,0.07032 -0.21227,0.299765 -0.47173,0.509853 l -0.47173,0.381985 1.14903,3.284912 c 0.63196,1.806705 1.17919,3.28492 1.21606,3.28492 0.0369,0 0.43268,-1.110966 0.87958,-2.468811 l 0.81255,-2.46881 -0.3783,-0.990547 c -0.21669,-0.567403 -0.55754,-1.047441 -0.79792,-1.123735 -0.94269,-0.299191 -0.31134,-0.537645 1.42355,-0.537645 1.08421,0 1.84317,0.08929 1.84317,0.216842 0,0.119263 -0.13442,0.216849 -0.29871,0.216849 -0.82811,0 -0.77829,0.552816 0.33924,3.764245 0.61127,1.756589 1.18338,3.116335 1.27137,3.021651 0.1553,-0.167102 1.0667,-3.029904 1.62127,-5.092561 0.24286,-0.903303 0.23165,-1.055079 -0.10007,-1.355279 -0.20544,-0.185935 -0.48784,-0.338056 -0.62752,-0.338056 -0.13969,0 -0.25399,-0.09759 -0.25399,-0.216849 0,-0.125288 0.68668,-0.216842 1.62634,-0.216842 0.89448,0 1.62633,0.05507 1.62633,0.122419 0,0.06737 -0.28653,0.363528 -0.63674,0.658204 -0.53143,0.447165 -0.87698,1.269692 -2.0894,4.973411 -0.79898,2.4407 -1.56143,4.437168 -1.69435,4.436603 -0.13291,-5.74e-4 -0.7262,-1.415485 -1.31842,-3.144242 -0.59222,-1.728764 -1.13958,-3.1432 -1.21637,-3.1432 -0.0768,0 -0.62551,1.434064 -1.21938,3.18681 -0.59387,1.752737 -1.19307,3.224567 -1.33154,3.270725 -0.13849,0.04614 -0.25178,-0.01983 -0.25178,-0.14658 z m 12.02409,-0.100586 c -3.48349,-1.570309 -2.01529,-7.666414 1.67779,-6.966306 1.15769,0.219472 1.84664,0.919088 2.12634,2.159276 l 0.17256,0.765099 h -2.28222 -2.28223 l 0.1153,1.022978 c 0.21456,1.903521 2.11245,2.86367 3.50121,1.771275 0.63257,-0.497576 1.00709,-0.388885 0.64392,0.186878 -0.67412,1.068701 -2.49101,1.593479 -3.67267,1.0608 z m 2.50446,-4.969477 c 0,-1.099459 -1.22601,-1.85942 -2.08397,-1.291779 -0.22974,0.151989 -0.95185,1.416239 -0.95185,1.666453 0,0.06556 0.68306,0.11919 1.51791,0.11919 1.435,0 1.51791,-0.02696 1.51791,-0.493864 z m 21.48298,4.884619 c -1.15381,-0.588343 -1.60865,-1.374809 -1.7093,-2.955576 -0.0639,-1.004414 0.0142,-1.594094 0.28766,-2.170373 1.25209,-2.638592 4.88242,-2.321395 5.44179,0.475472 l 0.13868,0.693404 h -2.30396 -2.30397 v 0.661302 c 0,2.078852 1.91889,3.204586 3.65659,2.145179 0.82269,-0.501551 1.04001,-0.442804 0.70154,0.189648 -0.27649,0.516615 -1.89846,1.340888 -2.63763,1.340421 -0.29032,-1.89e-4 -0.86245,-0.170954 -1.2714,-0.379477 z m 2.58672,-4.884619 c 0,-0.778951 -0.59591,-1.457734 -1.27976,-1.457734 -0.66923,0 -1.17496,0.451427 -1.51875,1.355673 l -0.22657,0.595925 H 471.42 c 1.42941,0 1.51255,-0.02713 1.51255,-0.493864 z m 10.41208,4.950955 c -0.36632,-0.202769 -0.66105,-0.232544 -0.92159,-0.0931 -0.21067,0.112748 -0.38915,0.128377 -0.39661,0.03475 -0.007,-0.09364 -0.0319,-2.21944 -0.0542,-4.723992 -0.0402,-4.496185 -0.0468,-4.556432 -0.52854,-4.767782 -0.26834,-0.117723 -0.4879,-0.279317 -0.4879,-0.359094 0,-0.139228 1.83965,-0.836337 2.20707,-0.836337 0.098,0 0.17821,1.071947 0.17821,2.382101 v 2.3821 l 0.70475,-0.429692 c 3.10486,-1.893072 5.72314,2.512354 3.24415,5.458473 -0.98894,1.175286 -2.76731,1.604674 -3.94533,0.952593 z m 2.60722,-0.779401 c 0.8901,-0.890101 1.12822,-2.612932 0.55181,-3.99247 -0.53588,-1.282559 -1.9114,-1.606666 -2.84719,-0.670874 -0.42249,0.422487 -0.52959,0.7467 -0.51933,1.572112 0.0197,1.585119 0.32429,3.122564 0.66082,3.335668 0.54779,0.346874 1.69248,0.216973 2.15389,-0.244436 z m 5.1956,0.62238 c -1.11595,-0.748127 -1.79393,-2.190362 -1.649,-3.507835 0.22442,-2.039979 1.42637,-3.295935 3.13058,-3.271225 1.5835,0.02295 2.25032,0.580525 2.64062,2.207934 l 0.16901,0.704738 h -2.25403 -2.25402 v 0.748758 c 0,1.029812 0.40556,1.827695 1.11567,2.194903 0.84884,0.438952 1.76787,0.382787 2.44444,-0.149408 0.63256,-0.497576 1.00709,-0.388885 0.64391,0.186878 -0.79981,1.267971 -2.76534,1.704367 -3.98718,0.885257 z m 2.81898,-4.793934 c 0,-1.099459 -1.22601,-1.85942 -2.08397,-1.291779 -0.22974,0.151989 -0.95185,1.416239 -0.95185,1.666453 0,0.06556 0.68306,0.11919 1.5179,0.11919 1.435,0 1.51792,-0.02696 1.51792,-0.493864 z m -112.97579,4.857049 c 0,-0.10479 0.28425,-0.308272 0.63167,-0.45218 0.36836,-0.152579 0.68709,-0.482489 0.76464,-0.791449 0.0731,-0.29139 0.0787,-2.161481 0.0123,-4.155753 -0.11727,-3.523382 -0.13583,-3.638457 -0.65622,-4.067788 -0.29454,-0.243011 -0.53552,-0.526352 -0.53552,-0.629642 0,-0.103298 1.18059,-0.124337 2.62353,-0.04671 3.20703,0.172437 4.26887,0.558749 4.83917,1.760572 1.02221,2.154137 -0.75157,4.014975 -3.83056,4.018589 l -1.03001,8.2e-4 v 1.532159 c 0,1.75817 0.20013,2.265401 0.97007,2.458639 1.21172,0.304126 0.46665,0.562929 -1.6206,0.562929 -1.19265,0 -2.16845,-0.08574 -2.16845,-0.190542 z m 5.21627,-5.236993 c 0.22946,-0.122796 0.56457,-0.508271 0.7447,-0.856604 0.93119,-1.800723 -0.29354,-3.627508 -2.30311,-3.435295 l -0.73046,0.06991 -0.0632,1.934436 c -0.0348,1.063939 -0.0134,2.064132 0.0474,2.222653 0.13275,0.345939 1.69724,0.390024 2.30466,0.06491 z m 3.45749,5.205317 c 0,-0.122214 0.24396,-0.31496 0.54211,-0.428315 0.53278,-0.202564 0.54212,-0.247083 0.54212,-2.584468 0,-2.201213 -0.0353,-2.40313 -0.47482,-2.710935 -0.54066,-0.37869 -0.5241,-0.411325 0.3664,-0.721868 0.35779,-0.124771 0.82129,-0.296061 1.03,-0.380657 0.31299,-0.126853 0.37948,-0.03573 0.37948,0.519934 0,0.836313 0.10519,0.839124 0.86737,0.02319 0.66092,-0.707509 1.21105,-0.814307 1.83697,-0.356627 0.80547,0.588975 -0.18055,1.550238 -1.03976,1.013651 -0.39671,-0.247748 -0.51423,-0.202893 -1.0555,0.402891 -0.56526,0.632633 -0.60908,0.81293 -0.60908,2.505945 0,1.867051 0.25268,2.505773 0.99129,2.505773 0.17038,0 0.30978,0.09758 0.30978,0.216842 0,0.127557 -0.75896,0.216849 -1.84318,0.216849 -1.1139,0 -1.84318,-0.08792 -1.84318,-0.222217 z m 24.50339,0.0057 c 0,-0.119264 0.0906,-0.216842 0.20135,-0.216842 0.11075,0 0.35471,-0.153341 0.54212,-0.340752 0.28501,-0.285013 0.34076,-0.991554 0.34076,-4.31915 0,-2.188116 -0.0593,-4.132747 -0.13163,-4.321395 -0.0724,-0.188648 -0.32447,-0.342998 -0.56018,-0.342998 -0.73921,0 -0.30452,-0.488028 0.70299,-0.789244 0.53054,-0.158619 1.0378,-0.289873 1.12725,-0.291685 0.0894,-0.0016 0.16263,1.625032 0.16263,3.615207 v 3.618493 l 0.67034,-0.636887 c 0.36869,-0.350292 0.87179,-0.917253 1.118,-1.259906 0.40856,-0.568633 0.4163,-0.64055 0.0886,-0.823937 -0.721,-0.403498 -0.32486,-0.61307 1.15887,-0.61307 1.50374,0 2.00722,0.263868 0.99043,0.519066 -0.29012,0.07278 -1.03227,0.596539 -1.64922,1.163828 l -1.12174,1.031435 1.16988,1.516021 c 0.64344,0.833812 1.47941,1.711177 1.85772,1.949704 0.3783,0.238535 0.69158,0.506878 0.69618,0.596326 0.005,0.08945 -0.67471,0.162635 -1.50956,0.162635 -1.48632,0 -1.74827,-0.116583 -1.29051,-0.574345 0.15862,-0.158636 -0.0272,-0.548799 -0.61451,-1.290222 -1.47762,-1.86537 -1.56448,-1.878508 -1.56448,-0.236618 0,1.230976 0.0581,1.439867 0.43368,1.559074 0.91764,0.291241 0.36574,0.542111 -1.19264,0.542111 -0.93965,0 -1.62633,-0.09156 -1.62633,-0.216849 z m 9.10746,-0.216842 c -0.38523,-0.38523 -0.43369,-0.72281 -0.43369,-3.021207 0,-2.438167 -0.0263,-2.59586 -0.45539,-2.732048 -0.44143,-0.140105 -0.43558,-0.165487 0.19082,-0.82778 0.35542,-0.375781 0.75894,-0.902796 0.89671,-1.171139 0.37981,-0.739784 0.63666,-0.587721 0.71066,0.42075 0.0662,0.901919 0.0731,0.908746 0.93406,0.921588 0.62069,0.0093 0.86738,0.105446 0.86738,0.338203 0,0.227644 -0.2766,0.345276 -0.92159,0.391942 l -0.92159,0.06671 v 2.346269 c 0,2.675251 0.15083,2.970886 1.41132,2.766338 0.88759,-0.144031 0.91464,-0.09693 0.28255,0.491954 -0.63356,0.590253 -1.97502,0.594671 -2.56124,0.0084 z m 27.97288,0.268261 c 0,-0.09098 0.21956,-0.261745 0.48791,-0.379476 0.45841,-0.201114 0.49159,-0.360815 0.5491,-2.642174 0.057,-2.26282 0.0308,-2.444404 -0.38555,-2.66722 -0.59472,-0.318279 -0.41355,-0.543554 0.75828,-0.942831 l 0.97555,-0.332401 v 0.528942 c 0,0.643221 0.0706,0.650106 0.83911,0.08187 0.45718,-0.338007 0.85972,-0.430585 1.64994,-0.379477 1.59088,0.102897 1.85016,0.583385 2.00436,3.714358 0.10855,2.203999 0.17531,2.54058 0.52601,2.651885 0.90738,0.287997 0.29601,0.531958 -1.33307,0.531958 -1.69744,0 -2.272,-0.251837 -1.19264,-0.522738 0.53845,-0.135138 0.54211,-0.152702 0.54211,-2.599089 0,-1.962366 -0.0684,-2.519845 -0.33683,-2.742554 -0.53308,-0.442419 -1.56048,-0.333859 -2.15865,0.228086 -0.50418,0.473661 -0.54034,0.649008 -0.54034,2.620185 0,2.052191 0.017,2.125271 0.59632,2.557463 l 0.59632,0.444902 -1.78896,0.0066 c -0.98393,0.0041 -1.78897,-0.06753 -1.78897,-0.158554 z m 8.67377,-0.05139 c 0,-0.119264 0.0906,-0.216842 0.20135,-0.216842 0.11075,0 0.3547,-0.153341 0.54212,-0.340752 0.26401,-0.264016 0.34075,-0.825608 0.34075,-2.493709 0,-1.892531 -0.0547,-2.207597 -0.45176,-2.604711 -0.52628,-0.526286 -0.54881,-0.486725 0.53245,-0.934939 1.05764,-0.43842 1.00353,-0.449861 1.00353,0.212121 0,0.3081 0.0732,0.522679 0.16264,0.476833 1.82888,-0.9373 2.2606,-1.05812 2.95829,-0.827863 1.00643,0.332155 1.26227,1.038205 1.37785,3.80247 0.0883,2.111765 0.15312,2.428242 0.56524,2.759937 0.45086,0.362864 0.41262,0.374813 -1.21504,0.379477 -0.97901,0.0025 -1.68054,-0.08569 -1.68054,-0.212022 0,-0.119264 0.14294,-0.216842 0.31764,-0.216842 0.1747,0 0.41865,-0.188747 0.54211,-0.41943 0.31539,-0.589303 0.27558,-3.911604 -0.0548,-4.567988 -0.34115,-0.677922 -1.4132,-0.830362 -2.20254,-0.313173 -0.53852,0.352857 -0.55408,0.429904 -0.55408,2.743702 0,2.198279 0.0332,2.389337 0.43369,2.494061 0.9464,0.247485 0.34822,0.496519 -1.19265,0.496519 -0.93965,0 -1.62632,-0.09156 -1.62632,-0.216849 z m 15.88383,-0.241798 c 0.58623,-0.437371 0.59632,-0.484529 0.59632,-2.785655 0,-2.178618 -0.0334,-2.362923 -0.48214,-2.660885 -0.47452,-0.315066 -0.46551,-0.327491 0.56967,-0.7854 0.5785,-0.255902 1.08821,-0.465269 1.13268,-0.465269 0.0445,0 0.0809,0.292733 0.0809,0.650532 0,0.791375 0.05,0.797678 0.75271,0.09495 0.64934,-0.649328 1.76579,-0.663875 2.15282,-0.02803 0.37725,0.61979 -0.33512,1.049408 -1.1997,0.723515 -0.60271,-0.227193 -0.70398,-0.195779 -1.19016,0.369232 -0.49262,0.572501 -0.52686,0.762297 -0.46931,2.602129 0.057,1.820376 0.10243,2.002288 0.54996,2.198632 0.88699,0.389139 0.51012,0.544988 -1.30107,0.53803 l -1.78896,-0.0066 z m 20.54598,0.293217 c 0,-0.09098 0.21955,-0.261745 0.4879,-0.379476 0.45896,-0.20136 0.49155,-0.359815 0.54939,-2.671949 0.0579,-2.315486 0.0359,-2.464573 -0.37948,-2.573207 -0.24253,-0.06344 -0.44096,-0.196951 -0.44096,-0.296717 0,-0.14744 1.79968,-1.069077 2.08758,-1.069077 0.0445,0 0.0814,0.365921 0.082,0.813159 l 8.2e-4,0.813168 0.48682,-0.575895 c 0.89709,-1.061226 2.10049,-1.310768 2.41158,-0.500068 0.27319,0.711918 -0.0973,1.014421 -1.06483,0.869341 -0.8262,-0.123902 -0.96956,-0.07712 -1.38624,0.452623 -0.41022,0.521524 -0.45748,0.820839 -0.4029,2.551882 0.0565,1.790675 0.10455,1.982315 0.55357,2.205631 0.91933,0.457229 0.77468,0.526015 -1.10613,0.526015 -1.03362,0 -1.87932,-0.07442 -1.87932,-0.16543 z M 404.19632,25.35969 c -0.22166,-0.26709 -0.22894,-0.462925 -0.0331,-0.89265 0.28855,-0.633305 1.02888,-0.650549 1.41601,-0.03295 0.50442,0.80466 -0.77342,1.659978 -1.38288,0.925628 z m 74.80786,-11.280146 c -0.77522,-0.156603 -1.89739,-0.469588 -2.49371,-0.695527 l -1.08422,-0.410792 0.0375,-1.633186 c 0.0732,-3.1908009 1.20895,-6.5328289 3.63695,-10.70218689 0.41593,-0.714237 0.92455,-1.421697 1.13026,-1.5721205 0.27086,-0.19804881 0.29105,-0.27349001 0.0732,-0.27349001 -0.17725,0 -0.0161,-0.2937661 0.39224,-0.7150653 1.04105,-1.0740935 0.97328,-1.2119204 -0.76814,-1.562294 -0.81944,-0.1648725 -1.02054,-0.4104644 -1.06498,-1.3005732 -0.0761,-1.5256429 -0.35288,-2.4835544 -0.75424,-2.6109404 -0.53689,-0.1704037 -0.51287,-0.4211097 0.1484,-1.5494914 0.40685,-0.69424 0.53665,-1.1863093 0.4879,-1.8496023 -0.0603,-0.820773 -0.13239,-0.920711 -0.78517,-1.088813 -0.87737,-0.225939 -0.85208,-0.693773 0.0654,-1.210273 0.90237,-0.507977 1.13962,-0.868603 1.30796,-1.988117 0.28438,-1.891277 1.11588,-2.821832 2.52147,-2.821832 1.18484,0 4.68365,0.843197 5.94755,1.433335 0.67825,0.316682 1.65575,1.094755 2.54792,2.028104 1.25262,1.310441 1.44749,1.6225 1.44749,2.317912 0,0.637681 -0.15296,0.943708 -0.74081,1.482156 -0.51277,0.469687 -0.85421,1.0686523 -1.10923,1.9458853 -0.26072,0.8968457 -0.61467,1.5087104 -1.21079,2.0930218 -1.07778,1.05644 -1.07424,1.5663755 0.0235,3.3864484 l 0.86586,1.4356134 -0.54408,0.6667435 c -0.29925,0.36669951 -0.88331,1.15224771 -1.29793,1.74565571 -0.6671,0.95477299 -0.83513,1.07288899 -1.46021,1.02643599 -1.1387,-0.08461 -1.34144,0.178518 -0.88154,1.1441499 l 0.39202,0.8231261 -0.63437,0.457393 c -2.74947,1.982405 -5.53613,4.683546 -6.512,6.3121849 -0.24617,0.410816 -0.0855,0.290963 0.43592,-0.325271 1.25514,-1.4832629 3.02857,-3.1175479 5.24157,-4.8302819 l 2.00062,-1.54837 -0.4285,-0.7262601 c -0.23567,-0.39945 -0.4285,-0.769477 -0.4285,-0.82229 0,-0.05286 0.37309,-0.09603 0.8291,-0.09603 0.77872,0 0.8908,-0.08893 1.84457,-1.46369989 1.76364,-2.54211311 1.33933,-2.45054271 3.64786,-0.787212 2.58323,1.86125589 3.16655,2.39587689 3.6595,3.35393589 0.47745,0.927948 1.20585,3.7323721 1.40776,5.4200441 0.14099,1.178474 0.12569,1.226599 -0.58037,1.8251289 -1.01314,0.858867 -4.2689,2.363274 -6.52739,3.016151 -3.42412,0.989833 -7.84462,1.264536 -10.78636,0.670292 z m 2.34461,-3.418231 c 0.0863,-0.448131 -0.53968,-0.7500849 -0.87007,-0.419701 -0.33039,0.330385 -0.0284,0.956371 0.4197,0.870071 0.2077,-0.04 0.41037,-0.242666 0.45037,-0.45037 z m 8.36795,-2.2175389 c 0.19607,-0.29924 0.26462,-0.544078 0.15233,-0.544078 -0.35333,0 -1.10733,1.432974 -1.09738,2.085613 0.009,0.6008499 0.0207,0.5936699 0.29903,-0.186264 0.15923,-0.446156 0.44994,-1.05603 0.64602,-1.355271 z m -12.01362,1.6243599 c 0,-0.1192629 -0.0976,-0.2168409 -0.21685,-0.2168409 -0.11926,0 -0.21684,0.09758 -0.21684,0.2168409 0,0.119264 0.0976,0.216842 0.21684,0.216842 0.11927,0 0.21685,-0.09758 0.21685,-0.216842 z m 0.43368,-1.7347559 c 0,-0.119263 -0.0976,-0.216841 -0.21684,-0.216841 -0.11926,0 -0.21684,0.09758 -0.21684,0.216841 0,0.119272 0.0976,0.21685 0.21684,0.21685 0.11926,0 0.21684,-0.09758 0.21684,-0.21685 z m 11.79165,-3.627221 c 0.57492,-1.126817 1.39533,-1.9835441 2.41164,-2.5183861 0.87768,-0.4618839 0.1134,-0.4853239 -0.85413,-0.02623 -1.27168,0.603448 -2.37926,2.6901511 -2.60535,4.9084931 l -0.11769,1.154887 0.31874,-1.241941 c 0.17532,-0.683061 0.55637,-1.707653 0.84679,-2.27686 z m -9.48952,-0.645591 c 1.05949,-1.2766661 2.01087,-2.459246 2.1142,-2.627954 0.26382,-0.430757 -0.21791,-0.68145499 -1.31716,-0.68545399 -0.85446,-0.0033 -0.94907,0.05917 -1.48885,0.98024499 -0.85202,1.4538729 -1.75558,4.654378 -1.314,4.654378 0.0437,0 0.94632,-1.04454 2.00581,-2.321215 z m -1.43475,0.702411 c 0,-0.226848 0.87078,-1.6338501 1.01117,-1.6338501 0.0597,0 -0.11164,0.365921 -0.38061,0.8131591 -0.59914,0.996268 -0.63056,1.037156 -0.63056,0.820691 z m 1.4178,-2.4470181 c 0.72683,-1.1303069 0.96748,-1.45129989 0.96748,-1.2904589 0,0.208293 -1.1088,1.8867769 -1.24639,1.8867769 -0.0575,0 0.068,-0.268343 0.27891,-0.596318 z m 4.0033,-2.89812489 c 0,-0.2495499 -0.15152,-0.2421247 -0.66478,0.03254 -0.23069,0.12346 -0.41944,0.369658 -0.41944,0.547111 0,0.276933 0.0768,0.272318 0.54211,-0.03254 0.29816,-0.195369 0.54211,-0.441568 0.54211,-0.547111 z m -2.60713,-0.73401321 c -0.003,-0.8038163 -0.31102,-1.0315416 -0.74563,-0.5513073 -0.29724,0.3284502 -0.33436,0.5059278 -0.15182,0.7258753 0.17829,0.21483351 0.17474,0.35798751 -0.0135,0.54630021 -0.18088,0.180878 -0.0852,0.176215 0.32873,-0.01598 0.35024,-0.1626598 0.58326,-0.44472251 0.58229,-0.70486171 z m 3.44533,-1.0027912 c 1.44722,-0.8496957 2.62982,-1.605936 2.62799,-1.6805413 -0.002,-0.074581 -0.0876,-0.2687528 -0.19071,-0.4314372 -0.15084,-0.2380764 -0.64284,-0.1111498 -2.52161,0.6505325 l -2.33421,0.9463227 -0.29075,0.9758027 c -0.15992,0.5366862 -0.29225,1.00019321 -0.29406,1.03000911 -0.013,0.2149319 0.70709,-0.1425066 3.00335,-1.49068851 z m 4.25764,-7.6884037 c -0.79161,-0.600342 -5.82971,-3.067972 -7.43983,-3.64399 -0.87178,-0.31187 -1.84757,-0.561847 -2.16844,-0.555503 -0.33231,0.0066 0.1781,0.236773 1.1859,0.53485 1.9912,0.588934 4.6464,1.780562 6.90447,3.098674 1.51083,0.8819213 2.34431,1.1927013 1.5179,0.565969 z m 1.68054,-1.126046 c 0.20913,-0.183641 0.37948,-0.636952 0.37948,-1.00979 0,-0.552094 -0.28922,-0.963083 -1.57212,-2.233996 -0.91829,-0.909721 -1.99918,-1.745287 -2.599,-2.009139 -1.16699,-0.513353 -4.47755,-1.289837 -5.52923,-1.296877 -0.7881,-0.0049 -1.94466,0.904156 -2.05276,1.614132 -0.0544,0.357389 0.10478,0.451229 0.98631,0.581377 1.49948,0.221382 1.50048,0.392639 0.002,0.279292 l -1.26968,-0.09602 1.30106,0.304568 c 2.34745,0.549505 6.89698,2.630749 8.34849,3.819123 0.79834,0.653614 1.30185,0.665498 2.00581,0.04729 z m -1.78896,-0.292479 c -0.75571,-0.662499 -0.75598,-0.663351 -0.0608,-0.200918 0.384,0.255435 0.75568,0.557454 0.82596,0.67117 0.20918,0.338457 0.0357,0.231847 -0.76519,-0.470252 z m -1.42225,-0.961297 c -0.40421,-0.323828 -0.40154,-0.327835 0.067,-0.10079 0.26834,0.130041 0.48789,0.281792 0.48789,0.337227 0,0.16593 -0.11245,0.118018 -0.55487,-0.236437 z m -4.86623,-2.264902 c -0.1789,-0.115608 -0.22768,-0.210203 -0.10842,-0.210203 0.11926,0 0.36322,0.09459 0.54211,0.210203 0.1789,0.115617 0.22768,0.210203 0.10842,0.210203 -0.11926,0 -0.36322,-0.09459 -0.54211,-0.210203 z m 1.19264,-2.006196 c -0.23852,-0.14204 -0.92158,-0.320493 -1.5179,-0.396565 l -1.08423,-0.138302 0.93236,-0.03057 c 0.81224,-0.02664 2.21189,0.437854 2.21189,0.733989 0,0.14122 -0.0457,0.127 -0.54212,-0.168594 z m -3.25266,4.164661 c -0.59632,-0.09288 -1.57212,-0.161013 -2.16844,-0.151415 l -1.08422,0.01746 1.30106,0.14394 c 0.71559,0.07917 1.69139,0.147301 2.16844,0.151416 0.81374,0.0074 0.80034,-0.0033 -0.21684,-0.161398 z m -29.34942,24.56762 c -0.10953,-0.208711 -1.27955,-3.3068759 -2.60004,-6.8847999 -3.74854,-10.1568376 -5.85315,-15.7567921 -5.96314,-15.8667781 -0.50525,-0.505256 -8.77553,-0.620922 -10.05333,-0.140614 -0.47541,0.178707 -0.4757,0.182387 -0.0833,1.0588913 0.21659,0.483766 0.79885,1.200381 1.29393,1.592479 0.49506,0.3921057 0.99608,0.8922224 1.11337,1.1113744 0.11729,0.219153 0.26949,1.4093302 0.33824,2.6448215 0.11473,2.0621323 0.0879,2.2900379 -0.32654,2.7788531 l -0.45153,0.53249 0.21803,-0.6104392 c 0.32977,-0.9233093 0.25323,-2.1531126 -0.16627,-2.671506 -0.20607,-0.2546317 -0.78937,-0.7193599 -1.29625,-1.0327301 l -0.92159,-0.5697557 v 3.225813 c 0,3.19623481 -0.005,3.23104981 -0.57167,3.7974868 -1.09194,1.0919349 -3.11467,0.661883 -3.11467,-0.66219499 0,-1.1938489 1.34166,-2.19497641 2.60342,-1.94263131 l 0.64924,0.1298525 v -4.5121667 c 0,-2.4816933 -0.0543,-4.5663806 -0.12048,-4.6326346 -0.18616,-0.186173 -3.42975,0.57137 -8.57047,2.0016483 -6.28341,1.7482046 -8.02189,2.1141747 -11.52977,2.4271351 l -2.98161,0.2660155 0.002,6.51309421 c 7.6e-4,4.05870699 0.0909,6.83611799 0.2392,7.37028799 0.47548,1.712644 2.19813,2.7207299 4.64926,2.7207299 0.71062,0 0.74828,0.03819 0.74828,0.758953 v 0.758952 h -8.90436 -8.90435 l 0.0679,-0.698976 c 0.067,-0.688413 0.0909,-0.702534 1.58586,-0.933292 2.08524,-0.321877 2.86249,-0.7779669 3.4343,-2.0152609 0.44626,-0.965648 0.47213,-1.365901 0.53599,-8.29337699 l 0.0671,-7.27875141 -2.09209,-0.6178147 c -1.75914,-0.5194907 -2.12301,-0.5689517 -2.28643,-0.310788 -0.15948,0.251951 -0.19493,0.241813 -0.19766,-0.05655 -0.002,-0.2294467 -0.45299,-0.5694527 -1.22217,-0.9215887 -0.67036,-0.306903 -1.29382,-0.558011 -1.38544,-0.558011 -0.0916,0 0.16185,1.292935 0.56329,2.873185 0.40144,1.5802508 0.73215,3.0364601 0.73491,3.236025 0.009,0.6497373 -1.06087,1.6971785 -1.73352,1.6971785 -0.68758,0 -1.29769,-0.4920115 -1.29646,-1.0454988 0.002,-0.7140653 0.84661,-1.7803237 1.51722,-1.9144461 0.80776,-0.1615535 0.8081,-0.2425432 0.0134,-3.2201089 -0.52091,-1.9517607 -0.74421,-2.464106 -1.22861,-2.818979 -2.77704,-2.034407 -4.18127,-3.689771 -4.7332,-5.579671 -0.25824,-0.884273 -0.28062,-6.598936 -0.0431,-11.008902 0.0482,-0.894485 0.0938,-2.180101 0.10132,-2.856942 0.0155,-1.389709 0.52738,-3.384899 1.15856,-4.515756 0.42477,-0.761043 1.48536,-1.65316 3.10518,-2.611923 1.181,-0.699035 0.67483,-0.08886 -1.09369,1.31839 -1.65421,1.316301 -1.8924,1.744664 -0.87863,1.580153 0.42688,-0.06925 0.96668,0.01582 1.34643,0.212161 0.5204,0.269114 0.70177,0.278145 1.01313,0.05049 0.22552,-0.164906 0.3245,-0.419988 0.24419,-0.62929 -0.11087,-0.288914 -0.0241,-0.330138 0.48413,-0.230126 0.40428,0.07958 1.419,-0.146539 2.92352,-0.651385 1.26738,-0.425266 2.46273,-0.773214 2.65634,-0.773214 0.73685,0 0.31087,-0.4019 -0.56957,-0.537374 -2.4715,-0.380304 -2.33107,-0.312321 -2.33107,-1.128505 v -0.750233 l 11.3301,0.08661 c 10.65403,0.08146 11.43362,0.113773 13.06486,0.541628 3.18898,0.836435 5.65796,2.230751 7.18504,4.057626 0.82105,0.982245 2.03224,1.588963 5.34211,2.676055 l 1.25125,0.410956 -0.1395,-0.455729 c -0.30188,-0.98617 -1.44576,-3.090003 -1.99762,-3.674043 -0.79092,-0.837034 -2.0078,-1.430377 -3.59392,-1.752369 -1.26248,-0.256295 -1.32841,-0.301543 -1.39315,-0.956043 l -0.0679,-0.687019 h 8.79593 8.79593 v 0.7269 0.726899 l -1.46369,0.240322 c -1.8592,0.305257 -2.65797,1.052875 -2.65345,2.483547 0.003,1.02519 1.12393,4.471237 1.53714,4.726614 0.41757,0.258066 3.52699,0.486742 6.33854,0.466138 2.66707,-0.01951 6.85548,-0.585057 7.40553,-0.99989 0.49407,-0.372625 0.50251,-2.871349 0.0129,-3.816803 -1.00897,-1.948327 -1.73295,-2.506495 -3.80426,-2.932965 -1.16536,-0.239937 -1.19264,-0.262532 -1.19264,-0.987375 v -0.741816 h 8.45692 8.45692 l 0.0674,0.697305 c 0.0564,0.583107 -0.0147,0.712336 -0.43369,0.789089 -3.2907,0.602743 -4.00011,1.117662 -3.93289,2.854655 0.0689,1.780274 -0.0677,1.798395 5.16656,-0.68543 6.93574,-3.291264 7.28266,-3.406167 10.33757,-3.424001 2.97916,-0.01738 2.62552,0.484685 2.98879,-4.243233 0.3569,-4.645183 0.45362,-5.421101 0.67568,-5.421101 0.11069,0 0.20125,0.222234 0.20125,0.493864 0,0.605325 0.309,1.059136 1.60067,2.350801 0.88892,0.888936 1.00092,1.108228 0.9967,1.951589 -0.005,0.993603 -0.68578,2.793294 -1.05667,2.793294 -0.11839,0 -0.0258,-0.428209 0.20567,-0.951568 0.5744,-1.298525 0.37939,-2.118224 -0.72981,-3.067661 -0.87772,-0.75129 -1.23341,-0.914516 -1.23341,-0.565994 0,0.623732 -0.45895,5.875485 -0.55381,6.337148 -0.0996,0.485013 -0.002,0.610513 0.74039,0.944979 1.13963,0.513894 2.28929,1.72765 2.85883,3.018184 0.51313,1.162721 0.57214,2.861801 0.35479,10.215543 -0.0598,2.023407 -0.0293,3.535896 0.0676,3.361082 0.097,-0.174822 0.96649,-2.792671 1.9322,-5.817435 1.86271,-5.834287 2.0931,-7.205711 1.42691,-8.493966 -0.40836,-0.789671 -1.2356,-1.228673 -2.98096,-1.581931 -1.2916,-0.261418 -1.35225,-0.302421 -1.35225,-0.91445 v -0.640763 l 6.77638,-0.05729 6.77638,-0.05729 v 0.752225 c 0,0.698993 -0.0575,0.762436 -0.81317,0.896624 -1.31721,0.233929 -2.85788,1.184358 -3.54958,2.189706 -0.99017,1.439171 -1.89422,3.756787 -4.39601,11.269615 l -2.32114,6.970339 -1.24831,-0.551717 c -1.17512,-0.519377 -1.2437,-0.591146 -1.16942,-1.223968 l 0.0789,-0.672251 -0.3883,0.596326 c -0.21356,0.327975 -0.50991,0.596318 -0.65856,0.596318 -0.16248,0 -0.0127,-0.406079 0.37549,-1.018248 0.71256,-1.123579 0.78336,-1.52965 0.36622,-2.100128 -0.25719,-0.351726 -0.32298,-0.321263 -0.82263,0.380968 -0.71476,1.004587 -2.36287,2.301923 -2.90945,2.290244 -0.39329,-0.0084 -0.38319,-0.0436 0.10842,-0.377371 0.84389,-0.573017 2.36792,-2.011516 2.85329,-2.693167 0.41294,-0.579902 0.41808,-0.649902 0.0852,-1.15801 l -0.35434,-0.5408 -1.7386,1.578251 c -1.69244,1.536339 -1.73532,1.599839 -1.61476,2.391411 0.0968,0.63569 0.0523,0.813168 -0.20398,0.813168 -0.22994,0 -0.32784,-0.226046 -0.32784,-0.756954 v -0.756953 l -1.03,0.630666 c -0.56651,0.346866 -1.68868,0.899968 -2.49371,1.229123 l -1.4637,0.598465 v 0.919572 c 0,0.505772 -0.0602,1.076463 -0.13377,1.268209 -0.11205,0.291971 0.10105,0.263384 1.31141,-0.175953 0.84207,-0.305658 1.41168,-0.421127 1.36488,-0.276678 -0.12865,0.39708 -1.40591,0.929808 -3.73516,1.557884 -1.19264,0.321591 -2.29109,0.619102 -2.44098,0.661138 -0.20682,0.05803 -0.17357,0.336892 0.13791,1.15664 l 0.41045,1.080208 -1.11371,0.231053 c -0.61254,0.127074 -2.08951,0.372059 -3.28215,0.544406 l -2.16844,0.313354 1.99957,-0.107798 c 1.23617,-0.06663 3.13893,-0.394753 4.98391,-0.859424 1.64138,-0.413398 3.13228,-0.743742 3.31311,-0.734087 0.55255,0.02951 -1.34554,0.823477 -2.33024,0.974737 -0.50834,0.0781 -0.96819,0.213071 -1.02189,0.299962 -0.0537,0.0869 0.0858,0.6367233 0.30996,1.2218373 0.44868,1.17109 0.45496,1.172753 2.24656,0.596507 0.57423,-0.18469 1.09629,-0.283563 1.16015,-0.219718 0.2674,0.2674 -0.22537,0.565699 -1.35043,0.81747 -0.65936,0.147563 -1.24105,0.3365877 -1.29264,0.4200697 -0.0852,0.137851 0.57275,2.0277755 2.47983,7.12325311 l 0.68078,1.81894999 -0.98033,1.9758239 c -0.93257,1.8795331 -2.06288,5.6081431 -2.07001,6.828407 -0.002,0.312681 -0.0765,0.683725 -0.16613,0.824535 -0.0931,0.146309 -1.59459,-3.5472969 -3.50407,-8.619557 l -3.34125,-8.8755651 -2.34741,-0.044339 c -1.29107,-0.024423 -2.74975,-0.048764 -3.24152,-0.054174 l -0.89413,-0.00983 -0.81861,2.2768677 c -1.59754,4.44332251 -6.06082,15.8964634 -6.39156,16.4012344 -0.26966,0.411563 -0.52573,0.512607 -1.29904,0.512607 -0.69688,0 -1.01823,-0.104921 -1.16232,-0.379476 z m 5.34574,-14.5426176 c 1.11014,-2.9500283 1.64812,-4.6468547 1.48719,-4.6907017 -0.26234,-0.07147 -5.87691,-1.1782434 -6.91927,-1.3639654 l -0.59549,-0.106102 0.30939,0.7404797 c 0.17017,0.40726 0.98989,2.5894345 1.82161,4.8492715 1.92095,5.2193725 1.98364,5.3785485 2.07837,5.2772995 0.0434,-0.04639 0.86157,-2.16418489 1.8182,-4.7062816 z m -50.52029,-1.638645 c 0.2919,-0.291709 0.55386,-0.8747829 0.62232,-1.3851445 l 0.11821,-0.8813638 2.30509,-0.1224517 c 4.43353,-0.2355276 7.14065,-0.7307847 13.59244,-2.4867171 8.72495,-2.3745933 9.62942,-2.5248613 15.19736,-2.5248613 h 4.58347 l -0.42737,-1.084224 c -0.23506,-0.596318 -0.46461,-1.121489 -0.51011,-1.16704 -0.0455,-0.04557 -1.27899,-0.09434 -2.74107,-0.108421 -2.49705,-0.02401 -2.66326,7.13e-4 -2.73972,0.408088 -0.14891,0.793325 -0.92149,1.409485 -1.7673,1.409485 -0.90196,0 -1.30663,-0.31142 -1.30663,-1.005528 0,-0.438289 -0.0785,-0.473014 -0.81316,-0.359816 -0.44725,0.06893 -3.1063,0.707583 -5.90901,1.419272 -8.47517,2.1520803 -12.95412,2.9818933 -16.09499,2.9818933 h -1.46939 v 1.1926437 c 0,1.1731626 -0.0103,1.1926438 -0.63279,1.1926438 -1.18053,0 -1.3188,-0.1582915 -1.3188,-1.5097505 v -1.246515 l 1.4637,-0.138236 c 0.80504,-0.07606 2.43949,-0.150154 3.63214,-0.164717 1.74469,-0.02131 1.99894,-0.06155 1.30106,-0.205884 -0.47705,-0.09868 -1.37967,-0.1850343 -2.0058,-0.1919103 l -1.13844,-0.01246 v -0.975835 c 0,-0.93966 -0.0241,-0.975803 -0.65053,-0.975803 -0.64396,0 -0.65054,0.01205 -0.65054,1.192644 0,1.2820513 -0.029,1.3061053 -1.27395,1.0571043 -0.66478,-0.13295 -0.67764,-0.159209 -0.67764,-1.3837763 v -1.248251 l 4.17425,-0.116592 c 3.27837,-0.09157 4.75599,-0.235315 6.8848,-0.669768 1.4908,-0.304248 3.11193,-0.596785 3.60252,-0.65009 1.19935,-0.130303 6.30918,-1.491114 5.99383,-1.596232 -0.13742,-0.04581 -1.57267,0.264712 -3.18944,0.690044 -1.61676,0.425323 -3.04423,0.77332 -3.17215,0.77332 -0.12792,0 0.21411,-0.510616 0.76004,-1.134709 0.54594,-0.624085 0.99262,-1.189907 0.99262,-1.257382 0,-0.187902 -7.63263,1.395332 -8.17162,1.695031 -0.57274,0.318477 -1.72621,0.346555 -1.91164,0.04655 -0.0737,-0.119263 -1.00647,-0.216841 -2.07281,-0.216841 h -1.93881 v 1.084223 1.084216 h -0.97579 -0.9758 v -0.993866 c 0,-0.694265 -0.0811,-0.966862 -0.2688,-0.904271 -0.1688,0.0563 -0.24241,0.395876 -0.19786,0.912917 l 0.071,0.823314 -0.95784,-0.143638 c -0.52681,-0.07901 -1.43797,-0.262122 -2.02479,-0.406948 l -1.06695,-0.263303 -0.0645,-1.229983 -0.0645,-1.229992 -0.92198,-0.314149 c -0.88296,-0.300855 -0.94727,-0.292389 -1.51969,0.199975 -1.09749,0.944028 -2.47672,0.43483 -2.22544,-0.821609 0.11202,-0.560126 0.0298,-0.661359 -0.93354,-1.149527 l -1.05638,-0.535309 -0.79335,0.748216 -0.79334,0.748217 1.32359,0.855474 c 1.30164,0.841287 3.84804,1.922666 5.68251,2.413194 0.51315,0.137212 1.04913,0.344612 1.19107,0.460901 0.14195,0.116289 1.11774,0.385074 2.16844,0.597301 l 1.91036,0.385886 0.0651,1.227287 c 0.0456,0.859473 -0.0194,1.257112 -0.21685,1.3268163 -0.15507,0.05475 -1.0626,-0.06843 -2.01671,-0.2736703 l -1.73475,-0.373215 -0.10842,-1.272093 -0.10842,-1.272102 -1.79242,-0.51627 c -2.14448,-0.617676 -4.22091,-1.533782 -5.55158,-2.449305 -1.00656,-0.692535 -1.4382,-0.828625 -1.4382,-0.453443 0,0.119264 -0.0976,0.21685 -0.21684,0.21685 -0.11926,0 -0.21684,-0.235757 -0.21684,-0.523893 0,-0.3458 -0.27642,-0.743816 -0.81317,-1.170868 -0.44723,-0.35584 -1.10591,-1.044794 -1.4637,-1.531003 -0.35779,-0.486217 -0.71314,-0.88633 -0.78965,-0.88915 -0.0765,-0.0025 -0.2027,0.248133 -0.28038,0.557676 -0.43502,1.733247 2.87056,5.270972 6.734,7.206907 1.59901,0.801251 6.7326,2.549513 8.59066,2.9255723 l 1.33794,0.270794 0.0492,0.968066 c 0.027,0.532441 -0.002,1.1479274 -0.0652,1.3677444 -0.12264,0.4286998 -0.31512,0.4208565 -2.82755,-0.115158 l -1.12895,-0.2408467 -0.0637,-1.2981297 -0.0638,-1.2981233 -2.01607,-0.601891 c -2.50127,-0.746733 -4.90591,-1.875869 -6.65889,-3.126768 -1.53517,-1.095476 -3.40059,-3.052507 -3.82627,-4.014164 -0.42556,-0.96142 -0.62895,-0.79962 -0.47112,0.374797 0.17796,1.324217 0.70755,2.542456 1.57897,3.632138 0.70259,0.878577 2.79613,2.710559 3.09755,2.710559 0.0903,0 0.16677,-0.219555 0.16995,-0.487906 0.006,-0.463687 0.0243,-0.458122 0.37778,0.112199 0.21475,0.346423 0.8998,0.843762 1.62057,1.176515 0.68671,0.317026 1.3929,0.7966943 1.56931,1.0659233 0.23616,0.360429 1.12407,0.750626 3.36743,1.4798207 1.67568,0.5446767 3.2146,0.9919639 3.41981,0.9939718 0.25341,0.00246 0.15463,0.1436294 -0.30793,0.4399771 -0.87666,0.5616503 -1.2939,1.5071125 -0.94928,2.1510558 0.52685,0.9844082 2.08586,1.0590462 3.0018,0.1437031 z m 43.18975,-0.2444199 c 0.45871,-0.4882744 0.52171,-0.8045376 0.63716,-3.1984555 0.0807,-1.6738697 0.19074,-2.481883 0.29738,-2.1842967 0.13839,0.38618 0.53324,0.554774 2.1654,0.924587 2.01487,0.456533 5.47297,1.0959757 5.93001,1.0965257 0.24529,2.95e-4 0.94512,-1.4919837 0.94512,-2.0153027 0,-0.180157 -0.86081,-0.4067023 -2.54791,-0.6705623 -3.62763,-0.567355 -6.68731,-1.286756 -6.55954,-1.542305 0.0597,-0.119264 0.15983,-0.199705 0.22267,-0.178756 0.54571,0.181903 6.90091,1.375391 7.93744,1.490622 l 1.32951,0.14781 0.37312,-1.123358 c 0.20521,-0.617848 0.33879,-1.148306 0.29682,-1.178785 -0.042,-0.03049 -1.08661,-0.176732 -2.32143,-0.325 -1.23482,-0.148277 -3.43037,-0.511403 -4.879,-0.806955 -3.72041,-0.759052 -4.57622,-0.914631 -4.65136,-0.845582 -0.0362,0.03327 0.18331,0.673857 0.4879,1.423451 0.49727,1.223788 0.5538,1.655799 0.5538,4.2322843 v 2.869374 l -0.8509,-0.1141331 c -0.71146,-0.095422 -0.94242,-0.02262 -1.40948,0.4444684 -0.64406,0.6440578 -0.73033,1.5409526 -0.17912,1.8620021 0.69478,0.4046701 1.68156,0.2680808 2.22241,-0.3076332 z m -14.41799,-1.6179429 c -0.10709,-0.4875858 -0.45284,-0.8783314 -1.25552,-1.4188859 -0.60926,-0.4102917 -1.14542,-0.7083034 -1.19148,-0.6622434 -0.19501,0.1950077 0.49894,1.1599509 1.43661,1.9976071 0.55467,0.4955111 1.04218,0.8684065 1.08334,0.8286738 0.0412,-0.039749 0.008,-0.3750591 -0.0729,-0.7451516 z m 35.8858,-1.4061499 c 1.13302,-0.1709047 2.30398,-0.4168817 2.60213,-0.5466187 0.51596,-0.2245127 0.50881,-0.2307827 -0.14838,-0.1299587 -0.37977,0.05827 -1.55073,0.2192667 -2.60213,0.3577737 -1.0514,0.138515 -2.15559,0.3296957 -2.45374,0.4248477 l -0.54212,0.172994 0.54212,0.01582 c 0.29815,0.0087 1.46911,-0.123984 2.60212,-0.29488 z m -3.68527,-0.06622 c 5.9e-4,-0.08945 -0.16506,-0.6261414 -0.36811,-1.1926434 l -0.36917,-1.030009 h -1.7826 c -0.98044,0 -1.92741,-0.05557 -2.10439,-0.123484 -0.23473,-0.09007 -0.44488,0.20549 -0.7767,1.092353 -0.25019,0.668711 -0.4549,1.2609714 -0.4549,1.3161284 0,0.05516 1.31733,0.10029 2.9274,0.10029 1.61007,0 2.92788,-0.07319 2.92847,-0.162635 z m -70.15015,-2.0058114 c -0.0737,-0.119263 -0.29902,-0.21535 -0.5007,-0.213522 -0.316,0.0025 -0.32172,0.03237 -0.0414,0.213522 0.42467,0.274441 0.71173,0.274441 0.54212,0 z m 68.98624,-1.1510843 c -0.0691,-0.275301 -0.27615,-0.860784 -0.46011,-1.301065 -0.31589,-0.756035 -0.38915,-0.800513 -1.31842,-0.800513 -1.03522,0 -1.17885,0.158587 -1.70455,1.882049 -0.1648,0.540276 0.14547,0.63151 2.33834,0.687593 1.22503,0.03131 1.26588,0.01459 1.14474,-0.468064 z m -47.62709,-1.962202 0.75895,-0.350636 -0.75895,0.135106 c -0.41742,0.07433 -1.44201,0.2669 -2.27687,0.427978 l -1.5179,0.292865 1.5179,-0.07737 c 0.83486,-0.04254 1.85945,-0.235126 2.27687,-0.427979 z m 49.72942,-0.02032 c 0.43074,-0.292307 1.37939,-0.639583 2.10812,-0.77173 0.72872,-0.132139 1.53647,-0.325336 1.79501,-0.429315 0.25853,-0.103987 0.75252,-0.250009 1.09774,-0.324492 0.47134,-0.1017 0.56587,-0.197261 0.37948,-0.383648 -0.38615,-0.386148 -0.29381,-1.129234 0.22177,-1.784692 0.43897,-0.55806 0.44256,-0.589851 0.0542,-0.481865 -0.22868,0.0636 -0.92326,0.230307 -1.54353,0.370469 l -1.12775,0.254845 0.41642,1.056432 c 0.22902,0.581041 0.33823,1.104745 0.24269,1.163795 -0.0955,0.05901 -0.81332,0.172888 -1.59506,0.252985 l -1.42135,0.145621 0.25465,-1.274273 c 0.24321,-1.21701 0.28838,-1.280297 1.00534,-1.408363 l 0.75069,-0.134082 -0.70475,-0.02852 c -0.76615,-0.03106 -0.80625,-0.144514 -0.56556,-1.600666 0.0739,-0.447246 0.21651,-0.813167 0.31686,-0.813167 0.10034,0 0.38758,0.476866 0.63831,1.059693 0.32645,0.758872 0.559,1.037049 0.81919,0.979917 4.39416,-0.964927 4.37494,-0.957911 4.37494,-1.596888 0,-0.332941 -0.0597,-0.903738 -0.13261,-1.268429 -0.11652,-0.582607 -0.19206,-0.640468 -0.62247,-0.476825 -0.88733,0.337351 -4.90575,1.135077 -5.04026,1.00057 -0.22586,-0.225849 0.0241,-0.3265 1.67158,-0.673054 0.879,-0.184903 2.11776,-0.487234 2.7528,-0.671841 0.99956,-0.290587 1.14186,-0.399106 1.0596,-0.808104 -0.25073,-1.246694 -0.32667,-2.315608 -0.16449,-2.315608 0.0989,0 0.34898,0.536686 0.55575,1.192644 0.20678,0.65595 0.49294,1.190325 0.63593,1.187489 1.0057,-0.01992 5.06791,-2.339368 6.18611,-3.532176 l 0.50504,-0.538727 -1.26399,-0.478316 c -3.25814,-1.232918 -7.00753,-0.703174 -12.91371,1.82458 l -0.80751,0.345596 0.6296,1.707562 c 0.59969,1.626443 0.69386,2.233112 0.39332,2.533656 -0.0742,0.07417 -1.43496,0.213743 -3.02403,0.310214 l -2.8892,0.175405 2.99821,-0.03287 2.99822,-0.03287 -0.13738,0.975794 c -0.26269,1.865862 -0.13543,1.797764 -3.79903,2.032931 -0.65595,0.04213 -0.14355,0.0654 1.13868,0.0518 2.04217,-0.02164 2.33128,0.02016 2.33107,0.337015 -5.7e-4,0.856277 -0.23313,1.050301 -1.09389,0.912655 -0.71904,-0.114977 -0.90622,-0.05204 -1.3867,0.466441 -0.70051,0.755855 -0.69766,1.043228 0.0159,1.604502 0.72943,0.573771 0.93269,0.564928 1.88605,-0.08205 z m -40.07986,-0.409908 c 1.19264,-0.286136 2.90029,-0.648524 3.79477,-0.805299 0.89449,-0.156776 1.88684,-0.474719 2.20521,-0.706542 0.39729,-0.289258 0.75442,-0.377428 1.13844,-0.281046 0.5388,0.135228 0.55954,0.104609 0.55954,-0.825863 v -0.966296 l -0.81315,0.114453 c -1.84013,0.258992 -5.54383,0.979286 -6.07618,1.181686 -0.31401,0.119387 -1.01473,0.628331 -1.55715,1.130997 -0.54243,0.502665 -1.27897,1.136913 -1.63676,1.409444 -0.46826,0.356668 -0.52901,0.463737 -0.21684,0.382108 0.23852,-0.06237 1.40948,-0.347506 2.60212,-0.633642 z m 36.95584,-0.413857 c -0.009,-0.14908 -0.19276,-0.661375 -0.40871,-1.138438 l -0.39261,-0.867374 -0.2401,0.605883 c -0.13206,0.333236 -0.30025,0.845532 -0.37376,1.138437 -0.12343,0.491799 -0.0738,0.532548 0.6488,0.532548 0.48998,0 0.77645,-0.101323 0.76638,-0.271056 z m -3.80815,-0.874627 c 0.1951,-0.510862 0.35473,-1.03355 0.35473,-1.161533 0,-0.137262 -0.78736,-0.292127 -1.91979,-0.377616 -2.19794,-0.165922 -4.71345,-0.545161 -8.98642,-1.354804 -1.64527,-0.31174 -3.04257,-0.515632 -3.10511,-0.453082 -0.12238,0.122386 0.7687,2.324271 0.94061,2.324271 0.0569,0 1.58173,0.29207 3.38859,0.649049 3.97404,0.78513 6.88044,1.244769 8.08054,1.277912 0.85821,0.02369 0.90561,-0.01065 1.24685,-0.904197 z m -20.24291,-1.558917 -0.4483,-1.045835 -1.96464,0.139449 c -1.08055,0.07671 -2.05363,0.194459 -2.16241,0.261688 -0.10878,0.06721 -0.19777,0.55248 -0.19777,1.078348 v 0.956116 l 2.54791,0.06106 c 1.68224,0.04032 2.56926,-0.01811 2.61071,-0.17197 0.0345,-0.12818 -0.13894,-0.703681 -0.3855,-1.278895 z m -29.13266,0.392991 c 0.26486,-0.06286 0.52702,-0.342022 0.60213,-0.641304 0.14904,-0.59381 1.356,-1.442752 1.85615,-1.305556 0.1789,0.04909 0.49603,0.15952 0.70474,0.245444 0.35401,0.145744 0.37948,-0.136442 0.37948,-4.203853 0,-4.035449 0.16854,-5.229183 0.53319,-3.776342 0.0806,0.321049 0.71042,1.126087 1.39965,1.788962 l 1.25315,1.205224 0.13315,1.924954 c 0.1003,1.450161 0.0543,2.113568 -0.18636,2.689635 -0.40918,0.979327 -0.59277,0.815913 -0.2689,-0.239347 0.32988,-1.074839 -0.15186,-2.103521 -1.33479,-2.85027 -0.47846,-0.302044 -0.92067,-0.549177 -0.98267,-0.549177 -0.062,0 -0.11273,1.219748 -0.11273,2.710551 0,2.436216 0.0384,2.710738 0.37948,2.712394 0.40655,0.0016 6.50049,-1.13734 8.56411,-1.601133 1.21174,-0.272335 1.25463,-0.266188 1.57711,0.225987 0.49517,0.755708 1.68365,0.69506 2.50663,-0.127918 0.34862,-0.34862 0.63385,-0.773517 0.63385,-0.944216 0,-0.34803 2.45294,-1.134168 4.22846,-1.355173 1.81876,-0.226381 1.80715,-0.343506 -0.0986,-0.994358 -1.00836,-0.344375 -1.89829,-0.626134 -1.97763,-0.626134 -0.0793,0 -0.26947,0.447214 -0.4225,0.993801 -0.25988,0.928186 -0.7683,1.391488 -1.52699,1.391488 -0.11844,0 -0.20273,-1.667994 -0.20273,-4.011616 0,-2.529852 -0.0801,-4.011615 -0.21685,-4.011615 -0.13618,0 -0.21684,1.391938 -0.21684,3.742125 v 3.742116 l -0.94409,-0.07507 c -0.86752,-0.06901 -0.99892,-0.0086 -1.62,0.744906 -0.51037,0.619159 -0.95094,0.890387 -1.79878,1.10736 -0.61757,0.158054 -1.14989,0.260336 -1.18293,0.227299 -0.033,-0.03303 0.13852,-0.644631 0.38123,-1.359107 0.27484,-0.80902 0.48497,-2.136467 0.55709,-3.519111 l 0.11578,-2.22008 -0.73576,-0.316714 c -0.40466,-0.174183 -2.28213,-0.83178 -4.17214,-1.461323 -3.1082,-1.035304 -3.46026,-1.110646 -3.68635,-0.788868 -0.88564,1.260464 -0.81926,1.193972 -0.71738,0.71859 0.0511,-0.238536 0.16097,-0.598506 0.2441,-0.79994 0.11964,-0.289914 4.7e-4,-0.392327 -0.57173,-0.491339 -1.89831,-0.328483 -1.77704,-0.421177 -2.06161,1.5758 -0.28828,2.023064 -0.44503,2.301225 -1.49141,2.646559 -1.06166,0.350381 -1.91691,-0.08897 -2.00809,-1.031591 -0.12464,-1.288329 1.37479,-2.20927 2.56228,-1.573744 0.36229,0.193886 0.42225,0.10947 0.55608,-0.782933 0.18957,-1.264209 0.0228,-1.378359 -2.02067,-1.382669 l -1.57213,-0.0033 -0.0146,1.355271 c -0.008,0.745406 -0.002,3.589382 0.0138,6.319962 l 0.0283,4.964683 -1.26066,-0.139506 c -0.69337,-0.07671 -2.16329,-0.349907 -3.26648,-0.607079 l -2.00581,-0.46758 v -5.482396 -5.482405 l -0.81316,0.124943 c -1.32175,0.203081 -4.4045,1.133381 -5.74638,1.734109 -1.20643,0.540103 -1.24685,0.585352 -1.24685,1.395962 0,0.46077 -0.0101,0.910942 -0.0224,1.00039 -0.0123,0.08945 0.25604,0.316321 0.59632,0.504149 0.68767,0.379583 1.59522,1.592979 1.59316,2.13005 -7.3e-4,0.191074 -0.13872,0.610759 -0.30665,0.932636 -0.34181,0.655188 -0.28215,0.742062 0.93436,1.360385 0.55904,0.284137 0.85207,0.32005 1.22504,0.150113 0.26962,-0.122845 0.6952,-0.169758 0.94574,-0.104241 0.25052,0.06548 0.4507,0.03459 0.44482,-0.06884 -0.006,-0.103364 -0.19077,-1.60283 -0.41086,-3.332169 -0.2201,-1.729331 -0.31968,-3.230132 -0.22128,-3.335111 0.0984,-0.104987 0.23424,0.138966 0.30188,0.542104 0.25828,1.539174 0.77464,5.950067 0.77464,6.617228 0,0.670719 0.0656,0.723105 1.68054,1.341117 1.45258,0.555897 2.33941,0.79258 4.49951,1.20084 0.66203,0.125132 4.70828,0.122026 5.23968,-0.0041 z m 21.14354,-1.210699 c 2.71671,-0.471244 2.74863,-0.483529 2.87319,-1.106352 0.17476,-0.873816 0.15739,-1.65988 -0.0366,-1.659528 -0.35218,6.39e-4 -3.7508,0.63628 -4.5439,0.849835 -0.80696,0.217301 -1.15894,0.658655 -1.98544,2.489628 -0.0485,0.107535 0.14436,0.129688 0.42868,0.04926 0.28431,-0.08048 1.75318,-0.360717 3.26415,-0.622815 z m 29.13226,-0.09718 c 0.75597,-1.809321 0.8373,-1.717144 -1.66869,-1.891335 -1.23084,-0.08555 -2.62822,-0.226537 -3.10527,-0.313288 -0.56324,-0.102421 -1.53345,-0.02311 -2.76693,0.22616 -1.04475,0.211145 -2.68127,0.449091 -3.63672,0.528769 -0.95544,0.07966 -1.69776,0.184288 -1.6496,0.232454 0.15048,0.150481 7.27976,1.349895 9.89642,1.664953 1.37154,0.165135 2.5168,0.312076 2.54501,0.326525 0.0282,0.01442 0.20182,-0.333958 0.38578,-0.774238 z m 13.49457,-0.410793 c -0.055,-0.05499 -0.27757,-0.0318 -0.49464,0.05147 -0.37499,0.1439 -0.37384,0.158915 0.0232,0.301282 0.38022,0.136351 0.71218,-0.112027 0.47145,-0.352751 z m -35.31373,-0.215661 c 0.047,-0.04467 -0.0516,-0.441378 -0.21914,-0.881577 -0.29029,-0.762723 -0.37467,-0.81452 -1.7943,-1.101434 -0.81933,-0.165594 -1.62334,-0.249788 -1.78668,-0.187108 -0.27368,0.10502 -0.44928,2.071443 -0.20663,2.314084 0.10824,0.108241 3.88409,-0.02746 4.00675,-0.143965 z m -45.56854,-1.151756 c 0.39668,-0.472924 0.34098,-0.62665 -0.35808,-0.988145 l -0.62913,-0.325336 -0.0784,0.985588 c -0.0431,0.542079 -0.0373,1.026657 0.0129,1.076847 0.10774,0.107741 0.66917,-0.291684 1.05274,-0.748954 z m -1.4637,-0.669481 c 0,-1.004996 -0.0692,-1.143871 -0.99949,-2.005804 -0.54972,-0.509329 -1.06201,-0.947142 -1.13843,-0.972909 -0.0764,-0.02582 -0.31776,0.198409 -0.53631,0.498191 -0.39223,0.537997 -0.38948,0.555421 0.21281,1.34792 0.67906,0.893518 2.04732,2.20972 2.29879,2.211326 0.0894,5.66e-4 0.16263,-0.484856 0.16263,-1.078724 z m 85.124,0.305404 c 2.38776,-1.129586 6.16738,-4.047439 6.16738,-4.761193 0,-0.158275 -0.24728,-0.482275 -0.5495,-0.719999 l -0.54949,-0.432232 -0.58894,0.550201 c -1.47259,1.375719 -5.71347,3.752288 -6.69579,3.752288 -0.21771,0 -0.29,0.121058 -0.20483,0.343005 0.0724,0.188649 0.13162,0.735916 0.13162,1.21615 0,0.841729 0.0212,0.867824 0.58931,0.725236 0.32413,-0.08138 1.08924,-0.384402 1.70024,-0.673456 z m -26.21345,0.104897 c 0.9323,-0.129664 1.82635,-0.309223 1.98678,-0.399007 0.16044,-0.08978 -1.4979,-0.409071 -3.6852,-0.709525 -2.18729,-0.300462 -4.00025,-0.52854 -4.02878,-0.506846 -0.0285,0.02172 0.10825,0.447083 0.30395,0.945299 l 0.35582,0.905844 h 1.68618 c 0.92739,0 2.44896,-0.106093 3.38125,-0.235765 z m -8.06136,-0.508895 c 0.82802,-0.345972 0.9439,-0.640296 1.03009,-2.616423 l 0.0567,-1.301065 0.41423,0.951953 0.41424,0.951945 3.70486,-0.127582 c 3.7737,-0.129959 6.03724,-0.48507 9.12597,-1.431712 2.13349,-0.653868 2.13471,-0.654999 1.73681,-1.607321 -0.18323,-0.43851 -0.39861,-0.797301 -0.47863,-0.797301 -0.65978,0 -2.66767,0.763387 -2.66767,1.014232 0,0.168602 -0.23951,0.546062 -0.53225,0.838796 -0.68284,0.68284 -1.90581,0.731383 -2.35268,0.09339 -0.29822,-0.425774 -0.40051,-0.431692 -3.42759,-0.198319 -1.71611,0.132294 -3.29096,0.330613 -3.49967,0.440698 -0.28216,0.148833 -0.37947,0.11628 -0.37947,-0.126943 0,-0.243109 -0.25055,-0.327098 -0.97581,-0.327098 -0.53668,0 -1.04898,-0.02442 -1.13843,-0.05425 -0.0894,-0.02983 -0.21142,0.384902 -0.27105,0.921588 -0.10584,0.952543 -0.12522,0.974114 -0.81347,0.905213 -0.54903,-0.05499 -0.84894,0.07327 -1.35528,0.57964 -0.79933,0.799325 -0.81611,1.172155 -0.0788,1.752073 0.67951,0.534498 0.56542,0.523885 1.48791,0.13845 z m 18.43353,-0.06852 c -0.0846,-0.208719 -0.2467,-0.635624 -0.36023,-0.948683 l -0.20642,-0.569207 -1.93846,0.677628 c -1.06615,0.37269 -1.93908,0.745938 -1.93984,0.829436 -0.002,0.143129 1.14135,0.255705 3.54554,0.3493 0.92514,0.03598 1.03451,-0.0049 0.89941,-0.338474 z m -66.8107,-1.272265 c 0,-1.38135 -1.44425,-1.957449 -1.72321,-0.687372 -0.1346,0.612865 -0.0661,0.769296 0.56946,1.29986 0.84707,0.707165 1.15375,0.544357 1.15375,-0.612488 z m 43.65705,0.870193 c -0.072,-0.07204 -0.25908,-0.07974 -0.41562,-0.01713 -0.17299,0.06925 -0.1216,0.1206 0.13101,0.131008 0.22859,0.0094 0.35666,-0.0418 0.28461,-0.113895 z m 19.32587,-0.500699 c 3.34744,-1.127702 3.10592,-0.957797 2.71213,-1.907947 -0.18724,-0.451779 -0.3625,-0.845606 -0.38946,-0.875168 -0.027,-0.02959 -0.7526,0.18555 -1.6125,0.47803 -2.48558,0.845401 -5.56531,1.437359 -8.37616,1.610001 -2.8659,0.176027 -2.79035,0.236101 1.08423,0.862079 3.63341,0.587024 4.40138,0.567535 6.58176,-0.166995 z m -40.49649,-1.155223 c -0.11712,-0.308075 -0.65775,-0.866161 -1.20139,-1.240195 -0.90933,-0.625634 -0.98843,-0.645156 -0.98843,-0.243994 0,0.523311 2.24645,2.764478 2.33983,2.334336 0.0346,-0.159513 -0.0329,-0.542079 -0.15001,-0.850147 z m 20.74985,0.952462 c 0.20493,-0.130025 0.22297,-0.325877 0.0676,-0.734383 -0.22108,-0.581484 -0.64951,-0.772246 -2.84083,-1.264905 -0.65594,-0.147473 -1.86778,-0.497003 -2.69294,-0.776738 -0.82517,-0.279735 -1.5235,-0.484422 -1.55184,-0.45486 -0.0283,0.02959 -0.11815,0.501452 -0.1996,1.048662 l -0.14806,0.994915 2.03394,0.577206 c 2.41183,0.684438 2.28402,0.673964 2.4112,0.19772 0.0858,-0.321377 0.12532,-0.304772 0.25804,0.108421 0.13582,0.422906 0.30497,0.487463 1.26983,0.484587 0.61222,-0.0016 1.2389,-0.08311 1.3926,-0.180625 z m -49.46202,-1.062915 c -0.0545,-0.208711 -0.0992,-0.03795 -0.0992,0.379477 0,0.41743 0.0447,0.588196 0.0992,0.379476 0.0546,-0.208711 0.0546,-0.550242 0,-0.758953 z m 3.99397,-0.830501 c 0.20849,-1.6875 -0.36656,-2.071476 -1.43387,-0.957437 l -0.62423,0.651549 0.73747,0.760879 c 0.40561,0.41848 0.83901,0.727351 0.96314,0.686381 0.12411,-0.04098 0.28498,-0.554586 0.35749,-1.141372 z m 71.30167,0.431748 0.66717,-0.561388 v -3.545854 c 0,-2.129993 0.0866,-3.599364 0.21685,-3.67987 0.11926,-0.07368 0.21684,-0.03705 0.21684,0.08155 0,0.118542 0.0926,0.459187 0.20586,0.756986 l 0.20586,0.541456 3.42628,-1.47215 3.42627,-1.47215 0.0649,-1.096328 0.0649,-1.09632 -3.00179,1.369015 c -4.35222,1.984896 -4.60949,2.084334 -4.60683,1.780602 0.002,-0.320967 7.41501,-3.674346 10.08097,-4.560766 1.64326,-0.546366 2.31134,-0.651877 4.22847,-0.667768 l 2.27686,-0.01885 0.13118,-1.084216 c 0.0721,-0.596326 0.0883,-1.133012 0.0358,-1.192644 -0.0525,-0.05966 -1.08726,-0.102659 -2.29961,-0.09561 -2.67749,0.01557 -3.51987,0.281153 -8.69929,2.742858 -2.02182,0.960936 -4.29055,2.022875 -5.04163,2.359857 l -1.36559,0.612701 v 4.136739 c 0,4.130903 -6.4e-4,4.136394 -0.45389,3.893827 -0.93776,-0.501879 -2.58193,0.450279 -2.58193,1.495228 0,1.341183 1.60201,1.783176 2.80234,0.773165 z m 21.91789,-0.101938 c 0,-0.245567 -0.0976,-0.38618 -0.21684,-0.312468 -0.11926,0.07368 -0.21685,0.274621 -0.21685,0.446484 0,0.171855 0.0976,0.312469 0.21685,0.312469 0.11927,0 0.21684,-0.200926 0.21684,-0.446485 z m -96.26428,-0.231143 c 0.18779,-0.350881 0.18086,-0.583631 -0.029,-0.975794 -0.1516,-0.283251 -0.34614,-0.515009 -0.43231,-0.515009 -0.28943,0 -0.43342,1.088715 -0.20133,1.522365 0.28901,0.54003 0.35852,0.536719 0.66265,-0.03155 z m 47.71593,-1.212428 c -0.22095,-0.562478 -0.53645,-1.092337 -0.70112,-1.177466 -0.16467,-0.08513 -1.44597,-0.487963 -2.84732,-0.895198 l -2.54792,-0.740423 v 0.599089 c 0,0.329499 -0.0564,0.745954 -0.12524,0.925464 -0.17089,0.445329 0.30684,0.667367 3.31325,1.539879 3.48188,1.010512 3.40657,1.017019 2.90835,-0.251345 z m 48.11466,0.0518 c 0,-0.281366 -0.0638,-0.677816 -0.14176,-0.881004 -0.12563,-0.327401 -0.18479,-0.312386 -0.52001,0.132033 -0.34126,0.45241 -0.34629,0.550258 -0.0514,1.000365 0.38437,0.586614 0.71314,0.470719 0.71314,-0.251394 z m -94.38971,-1.575514 -0.59554,-0.595539 -0.51605,0.647196 -0.51606,0.647197 0.44084,0.619102 0.44084,0.619094 0.67075,-0.670751 0.67076,-0.67076 z m -2.27267,0.329212 c -0.0956,-0.365576 -0.14299,-0.381902 -0.29903,-0.10306 -0.23079,0.41239 0.0136,1.18312 0.25254,0.796497 0.0881,-0.142474 0.10897,-0.454516 0.0465,-0.693437 z m 55.462,-0.361765 c 0,-0.784171 -0.093,-1.096697 -0.3563,-1.19775 -0.19597,-0.07524 -0.39835,-0.09468 -0.44974,-0.04327 -0.0895,0.08951 0.6299,2.302052 0.74851,2.302052 0.0316,0 0.0575,-0.477456 0.0575,-1.061021 z m 2.16845,0.646606 c 0,-0.467662 -1.22548,-1.597871 -1.59942,-1.475092 -0.13407,0.04401 -0.27376,0.487168 -0.31044,0.984769 l -0.0667,0.904738 h 0.98827 c 0.82837,0 0.98826,-0.06704 0.98826,-0.414415 z m 5.70381,0.205786 c 0.82644,-0.135352 1.49233,-0.402867 1.9396,-0.779221 0.53544,-0.45055 0.83437,-0.548226 1.39783,-0.456795 0.71113,0.115404 0.71674,0.109519 0.71674,-0.752044 0,-0.726752 -0.0619,-0.849384 -0.37947,-0.752028 -1.08301,0.331983 -4.39866,0.771763 -6.84223,0.907525 l -2.76119,0.153415 0.3293,0.502567 c 0.18111,0.276416 0.32929,0.701166 0.32929,0.943889 0,0.412145 0.1326,0.441239 2.00581,0.440067 1.1032,-6.96e-4 2.57213,-0.09401 3.26432,-0.207375 z m 18.34648,-1.237016 c 0.049,-0.03827 -0.0818,-0.258369 -0.2906,-0.489085 -0.24272,-0.268204 -0.3282,-0.581476 -0.23704,-0.868702 0.0784,-0.247075 0.0994,-0.44923 0.0466,-0.44923 -0.31396,0 -3.40276,1.540354 -3.40276,1.696916 0,0.104479 0.10389,0.487996 0.23087,0.852261 l 0.23088,0.662294 1.6665,-0.667432 c 0.91658,-0.367077 1.70657,-0.69874 1.75553,-0.737022 z m 14.02926,0.849327 c 0.37875,-0.498953 0.37383,-0.960157 -0.0157,-1.476469 -0.3084,-0.40871 -0.33308,-0.402047 -0.85028,0.229611 l -0.53265,0.650532 0.45438,0.487897 c 0.54642,0.586721 0.57844,0.590401 0.94431,0.108429 z m 1.37083,-0.758961 c -0.0124,-0.573886 -0.0471,-0.624216 -0.18683,-0.271048 -0.0944,0.238527 -0.12587,0.555659 -0.07,0.704739 0.17438,0.465162 0.27266,0.299192 0.25681,-0.433691 z m -91.61823,-0.588729 c 2.30515,-1.135725 5.14543,-1.98211 6.95585,-2.072787 3.65447,-0.183042 6.38785,-0.401383 6.28703,-0.502207 -0.15623,-0.156234 -3.15886,-0.05696 -4.71491,0.155866 l -1.24686,0.170544 v -1.156354 c 0,-1.057644 -0.042,-1.156345 -0.49226,-1.156345 -0.66104,0 -3.476,0.790031 -4.71671,1.323767 -0.8808,0.378911 -1.0244,0.536981 -1.2025,1.32375 -0.25857,1.142126 -1.11896,1.852315 -1.80152,1.487017 -0.25343,-0.13563 -0.46077,-0.389533 -0.46077,-0.564232 0,-0.174699 -0.0679,-0.31764 -0.15098,-0.31764 -0.20917,0 -1.80062,1.115728 -1.80062,1.262373 0,0.152743 0.90801,1.122915 1.05097,1.122915 0.0594,0 1.09137,-0.484504 2.29328,-1.076667 z m -4.42138,-0.428003 c -0.13931,-0.260303 -0.36866,-0.435314 -0.50967,-0.38891 -0.30272,0.09963 -0.45552,0.91068 -0.26508,1.406978 0.11781,0.30701 0.18808,0.295184 0.58103,-0.09778 0.37437,-0.374362 0.40585,-0.523925 0.19372,-0.920293 z m 33.82059,1.190071 c 0,-0.05376 -0.1013,-0.570125 -0.22512,-1.147486 l -0.22513,-1.049736 -1.94492,-0.720729 c -1.0697,-0.3964 -2.97297,-1.043474 -4.22948,-1.437941 -2.23325,-0.701091 -2.28109,-0.706615 -2.12926,-0.246009 0.0854,0.259155 0.21158,0.793883 0.28036,1.188284 l 0.12505,0.717089 4.01163,1.366909 c 4.30873,1.468142 4.33687,1.476772 4.33687,1.329619 z m 35.42808,-1.077208 c -0.41861,-1.345797 -0.50615,-1.459512 -1.00425,-1.304352 -1.40984,0.439191 -1.46352,0.48884 -1.46352,1.353583 0,0.46013 0.0513,0.887912 0.11401,0.950618 0.0627,0.0627 0.64954,-0.03508 1.30408,-0.217227 1.04669,-0.291332 1.17316,-0.385623 1.04968,-0.782622 z m -22.41761,0.903902 c -1e-4,-0.02983 -0.18148,-0.531597 -0.40307,-1.115072 l -0.4029,-1.060874 -1.71115,-0.497806 c -0.94114,-0.273793 -2.13603,-0.649475 -2.65531,-0.834862 -0.79433,-0.283562 -0.92538,-0.288143 -0.82588,-0.02885 0.0651,0.169511 0.18384,0.657744 0.26399,1.084961 0.0802,0.427208 0.25302,0.843057 0.38417,0.924112 0.58034,0.358668 5.35078,1.721446 5.35015,1.52838 z m 46.60809,-0.867374 c 0.59484,-0.664506 0.61015,-0.727695 0.26827,-1.106696 -1.1407,-1.264537 -4.36157,-2.240913 -6.54318,-1.983487 -1.79943,0.212318 -2.09718,0.317755 -2.3451,0.830428 -0.18586,0.384345 -0.23037,0.401113 -0.24235,0.09132 -0.018,-0.465531 -0.6229,-0.493404 -1.2454,-0.05737 -0.32559,0.228045 -0.48259,0.607924 -0.53771,1.301065 -0.0429,0.538432 -0.0588,0.978975 -0.0356,0.978975 0.0233,0 0.70703,-0.156079 1.51947,-0.346842 2.25354,-0.529129 5.65947,-0.341686 7.22352,0.39754 0.65596,0.310027 1.21841,0.571821 1.24991,0.581754 0.0315,0.0099 0.34115,-0.29906 0.68812,-0.686667 z m 2.39554,-0.800399 c -0.002,-0.185919 -0.0887,-0.472874 -0.1931,-0.63769 -0.14957,-0.236142 -0.26654,-0.182517 -0.55191,0.253009 -0.30624,0.467384 -0.31826,0.622922 -0.0779,1.008061 0.26388,0.422898 0.30352,0.428971 0.55522,0.08503 0.14908,-0.203712 0.26956,-0.522492 0.26774,-0.708411 z m -16.47683,-0.391672 c 1.37153,-0.587901 2.66447,-1.130406 2.87318,-1.205568 0.28547,-0.102815 0.37948,-0.380083 0.37948,-1.119268 0,-0.540432 -0.0555,-0.982606 -0.1232,-0.982606 -0.23497,0 -6.27464,2.629225 -6.45974,2.812087 -0.26096,0.25782 0.28037,1.795265 0.58723,1.667814 0.13714,-0.05696 1.37151,-0.584566 2.74305,-1.172459 z m -77.13722,-0.02131 c 0.86188,-0.577911 1.83538,-1.214429 2.16337,-1.414493 0.52192,-0.318362 0.59632,-0.498372 0.59632,-1.442965 0,-0.593573 -0.0552,-1.079216 -0.12269,-1.079216 -0.53643,0 -3.75835,2.38351 -4.40082,3.255637 -0.44868,0.609095 -0.47762,0.758863 -0.23441,1.213322 0.15261,0.285152 0.31206,0.518451 0.35433,0.518451 0.0423,0 0.78203,-0.472834 1.6439,-1.050736 z m 52.74225,-0.1419 0.43369,0.867373 3.68635,-0.03967 c 2.6111,-0.02811 4.22398,-0.154611 5.52953,-0.433691 l 1.84317,-0.393991 0.0669,-1.048638 c 0.0604,-0.948142 0.0271,-1.036024 -0.34784,-0.917015 -2.29168,0.727351 -7.47587,1.112819 -10.88403,0.809283 -1.3702,-0.122034 -2.53588,-0.177264 -2.59042,-0.122722 -0.0545,0.0545 0.0501,0.508534 0.23254,1.008897 0.23385,0.641353 0.48629,0.946765 0.85567,1.035254 0.47722,0.114313 0.53362,0.04713 0.63237,-0.753462 l 0.10843,-0.878979 z m -55.83736,0.01279 c 0,-0.291119 -0.0976,-0.589622 -0.21684,-0.663326 -0.12651,-0.07819 -0.21685,0.14231 -0.21685,0.52931 0,0.364831 0.0976,0.663326 0.21685,0.663326 0.11927,0 0.21684,-0.238191 0.21684,-0.52931 z m 95.72439,-0.386312 c 0.18565,-0.265065 0.33756,-0.56365 0.33756,-0.663514 0,-0.400876 -2.22488,-2.500479 -3.03843,-2.867342 -0.70637,-0.318525 -0.97182,-0.344924 -1.41914,-0.141113 -0.83609,0.380943 -1.71747,0.301789 -2.16668,-0.194582 -0.42388,-0.468384 -1.02145,-0.460713 -2.97386,0.03819 -0.7113,0.181748 -0.78776,0.261099 -0.59632,0.618816 0.12078,0.225684 0.21959,0.638157 0.21959,0.916613 0,0.501256 0.0253,0.506379 2.54793,0.515255 2.86535,0.01008 4.31533,0.416644 5.69679,1.597322 0.91401,0.781172 0.96695,0.788023 1.39256,0.180379 z m -26.42028,-0.227143 c 0.0396,-0.03958 -0.0403,-0.43765 -0.1775,-0.884651 -0.21299,-0.693977 -0.33077,-0.80325 -0.80613,-0.747921 -0.4568,0.05319 -0.56916,0.194942 -0.62618,0.790178 -0.10923,1.1402 0.0447,1.342552 0.84653,1.112597 0.38024,-0.109052 0.72372,-0.230643 0.76328,-0.270203 z m 14.07245,0.275391 c 0.0737,-0.119263 -0.0238,-0.216841 -0.21684,-0.216841 -0.19297,0 -0.29055,0.09758 -0.21684,0.216841 0.0737,0.119264 0.17129,0.216842 0.21684,0.216842 0.0456,0 0.14314,-0.09758 0.21684,-0.216842 z m -57.5721,-0.40444 c 0,-0.539998 -0.76197,-1.48151 -1.5135,-1.870141 -0.57201,-0.295798 -0.61543,-0.285955 -0.73685,0.166963 -0.071,0.264712 -0.13035,0.733276 -0.13198,1.04127 -0.003,0.553847 0.26024,0.676742 2.21969,1.036491 0.0894,0.01639 0.16264,-0.152144 0.16264,-0.374583 z m 7.76866,-1.125866 c -0.48094,-1.054662 -0.58001,-1.135873 -2.13072,-1.746705 -3.87275,-1.525496 -9.17847,-2.794622 -11.6832,-2.794622 -0.67357,0 -0.67692,0.0057 -0.67692,1.159173 v 1.159181 l -2.65633,0.147891 c -1.46099,0.0813 -2.92469,0.205351 -3.25266,0.275588 -0.59106,0.126566 -0.59633,0.117633 -0.59633,-1.011273 v -1.138979 l -1.02507,0.140499 c -0.56378,0.07728 -1.58837,0.29856 -2.27686,0.491741 -1.20096,0.336973 -1.2518,0.38032 -1.2518,1.067496 0,0.39395 -0.0994,0.977704 -0.22088,1.297245 -0.19457,0.511755 -0.17519,0.563142 0.16263,0.431306 2.16225,-0.843844 10.74288,-1.744049 13.76949,-1.444579 1.59574,0.15789 1.6847,0.100438 1.6847,-1.087912 0,-0.375182 0.0908,-0.589466 0.21684,-0.511582 0.11927,0.07368 0.21733,0.299027 0.21792,0.500698 0.002,0.84895 0.93563,1.504777 2.9374,2.064477 1.07947,0.301822 3.12865,0.971713 4.55373,1.488639 1.42507,0.516935 2.62287,0.867407 2.66175,0.778844 0.0389,-0.08857 -0.15627,-0.658777 -0.43369,-1.267126 z m -30.50725,-0.965501 c 0.4188,-0.358963 1.02247,-0.771583 1.3415,-0.916941 0.91916,-0.4188 0.69686,-0.8564 -0.66831,-1.315588 -0.80005,-0.269105 -0.93475,-0.177789 -1.52795,1.035754 -0.22589,0.462122 -0.57433,0.800071 -0.90257,0.87539 -0.78498,0.180124 -1.37999,1.29995 -1.09251,2.0561 l 0.22526,0.592491 0.93156,-0.83728 c 0.51236,-0.460499 1.27422,-1.130971 1.69302,-1.489926 z m 43.43444,1.805083 c -0.53396,-1.682361 -0.57814,-1.720184 -3.04999,-2.610792 -1.29709,-0.467343 -2.53001,-0.903099 -2.73981,-0.968345 -0.33586,-0.104446 -0.31859,0.01713 0.14453,1.016675 0.2893,0.624412 0.60894,1.218255 0.71034,1.319644 0.17199,0.171995 4.51788,1.682639 4.90809,1.706071 0.0975,0.0057 0.10956,-0.202614 0.0269,-0.463253 z m 50.64586,-0.08097 c 0,-0.171856 -0.0976,-0.312469 -0.21685,-0.312469 -0.11926,0 -0.21684,0.200925 -0.21684,0.446493 0,0.245567 0.0976,0.386172 0.21684,0.312468 0.11927,-0.07368 0.21685,-0.274629 0.21685,-0.446492 z m -74.15772,-0.459032 c 0.002,-0.336818 0.0597,-0.823765 0.12896,-1.082117 0.11601,-0.432487 0.0255,-0.480645 -1.1414,-0.607383 -0.69707,-0.07573 -1.63332,-0.190041 -2.08056,-0.254074 l -0.81317,-0.11642 v 1.1958 c 0,1.364696 -0.10897,1.298598 2.31896,1.406305 l 1.58424,0.07024 z m 61.98209,-0.09149 c 0.9098,-0.317156 0.92304,-1.453701 0.0225,-1.935632 -0.73032,-0.39086 -1.07442,-0.0345 -1.07442,1.112663 0,1.149821 0.0352,1.177375 1.05187,0.822969 z m 11.73862,-1.174327 c 0.005,-0.919113 -1.27594,-2.725556 -2.51312,-3.545034 -0.56508,-0.374289 -1.10018,-0.680529 -1.18912,-0.680529 -0.15257,0 -0.70691,2.174872 -0.58161,2.281851 0.0323,0.02754 0.48515,0.265245 1.00637,0.528179 0.52122,0.262925 1.39587,0.954428 1.94368,1.536666 1.05804,1.124546 1.32759,1.100074 1.3338,-0.121133 z m -89.37127,0.20954 c 0.13841,-0.303773 0.25166,-0.840468 0.25166,-1.192645 0,-0.495765 -0.0979,-0.640328 -0.43369,-0.640328 -0.38112,0 -0.43369,0.144563 -0.43369,1.192644 0,1.289574 0.21706,1.515308 0.61572,0.640329 z m -6.9042,-0.640329 c 0,-0.149694 -0.14637,-0.393647 -0.32527,-0.542112 -0.27927,-0.231782 -0.32526,-0.155136 -0.32526,0.542112 0,0.697239 0.046,0.773885 0.32526,0.542103 0.1789,-0.148465 0.32527,-0.392417 0.32527,-0.542103 z m 68.08906,0.466039 c 0,-0.270007 -0.5019,-1.441842 -0.61754,-1.441842 -0.0778,0 -0.14142,0.341531 -0.14142,0.758953 0,0.578255 0.0904,0.758953 0.37948,0.758953 0.20871,0 0.37948,-0.03426 0.37948,-0.07606 z m -36.11663,-1.465232 c -0.58339,-1.128169 -2.21083,-2.576322 -3.65449,-3.251884 -1.90134,-0.889748 -4.33777,-1.306802 -7.19708,-1.23195 l -2.36384,0.06188 -0.0667,0.921588 -0.0667,0.921588 1.04248,8.2e-4 c 2.53462,0.0025 6.99592,1.041565 10.6539,2.482251 1.03472,0.407531 1.90822,0.747389 1.9411,0.755249 0.0329,0.0082 -0.097,-0.288955 -0.2887,-0.659589 z m 64.42985,-1.815787 c -0.20794,-1.108384 -1.33743,-2.668892 -2.43602,-3.365599 -0.55952,-0.354832 -1.06641,-0.596055 -1.12643,-0.536046 -0.06,0.05999 -0.17262,0.604243 -0.25026,1.209404 -0.12613,0.98322 -0.0931,1.11903 0.31034,1.276355 0.83652,0.326204 2.23565,1.477272 2.86368,2.355947 0.6126,0.85708 0.62489,0.862547 0.69554,0.309437 0.0396,-0.309691 0.0139,-0.871964 -0.0569,-1.249498 z m -91.11363,1.444342 c 0.12827,-0.207548 -0.64944,-1.558385 -0.89437,-1.553484 -0.0912,0.0016 -0.30291,0.09011 -0.47047,0.196197 -0.25001,0.158283 -0.21112,0.311091 0.21684,0.852056 0.52026,0.657613 0.93973,0.842221 1.148,0.505231 z m 81.88269,-0.292619 c 1.11919,-0.197647 1.52147,-0.379845 1.95319,-0.884634 0.55243,-0.64591 1.23166,-0.816864 2.08576,-0.52495 0.36293,0.124042 0.48757,0.05598 0.58586,-0.319836 0.0687,-0.262574 0.075,-0.558053 0.0141,-0.656614 -0.23672,-0.383033 -4.11972,-0.191468 -5.64605,0.278547 -1.67526,0.515869 -2.67919,0.984596 -2.67919,1.250899 0,0.09878 0.24895,0.44823 0.55322,0.776541 0.43518,0.469563 0.67808,0.568338 1.13843,0.462949 0.32187,-0.07368 1.21948,-0.246001 1.99471,-0.382902 z m -78.17231,-0.739505 c 1.07338,-0.279481 2.82982,-0.57314 3.90319,-0.652581 1.07338,-0.07942 2.78104,-0.222775 3.79478,-0.318525 1.60233,-0.151342 1.48898,-0.161513 -0.86738,-0.07786 -1.4908,0.05294 -2.9466,0.119362 -3.23509,0.14762 -0.42141,0.04131 -0.55934,-0.07999 -0.70147,-0.616774 -0.0973,-0.367494 -0.35628,-0.830485 -0.5755,-1.028878 -0.37268,-0.337277 -0.52427,-0.327606 -2.33434,0.148899 -1.06468,0.280284 -2.30669,0.667194 -2.76003,0.859801 -0.71916,0.30556 -0.7952,0.404449 -0.5965,0.77573 0.12526,0.234044 0.32676,0.68597 0.44778,1.004283 0.16487,0.433641 0.31442,0.539595 0.5965,0.422585 0.20706,-0.08589 1.25469,-0.384836 2.32806,-0.664309 z m -7.03318,0.335064 c 0.5919,-0.316771 0.52068,-0.826075 -0.13867,-0.991554 -0.66684,-0.167364 -1.61033,0.214169 -1.61033,0.651204 0,0.537621 1.01231,0.73462 1.749,0.34035 z m 13.5385,-4.105045 1.9516,-0.158857 -2.06002,-0.02254 c -1.133,-0.01237 -2.69428,0.11565 -3.4695,0.284546 l -1.40949,0.307101 1.51791,-0.125689 c 0.83485,-0.06917 2.39613,-0.197172 3.4695,-0.284546 z m 58.1067,44.2393511 c -0.78187,-0.316919 -1.04844,-0.81711 -0.83398,-1.564876 0.33742,-1.176507 1.83787,-1.880074 2.95574,-1.385948 0.35359,0.1563 0.37948,-0.09928 0.37948,-3.74585299 0,-2.37515881 0.0852,-3.96628521 0.21684,-4.04761911 0.14204,-0.087776 0.21685,1.4995806 0.21685,4.6011061 0,5.259654 -0.0498,5.47012 -1.43087,6.04717 -0.81513,0.340579 -0.88908,0.3453 -1.50406,0.09602 z m -47.85815,-2.194837 c -0.69076,-0.402449 -0.85451,-0.989686 -0.50753,-1.8201391 0.42617,-1.019961 1.60174,-1.6092629 2.51932,-1.2629129 l 0.64189,0.2422889 v -3.9927798 c 0,-2.5172961 0.0802,-3.9927816 0.21685,-3.9927816 0.13813,0 0.21684,1.7708907 0.21684,4.87898911 0,4.62171039 -0.0234,4.90232239 -0.44234,5.32134239 -0.78662,0.786606 -1.91213,1.052982 -2.64503,0.625995 z m 31.87517,-35.8170301 c -0.72038,-0.240125 -0.92832,-0.843418 -0.55736,-1.617074 0.36914,-0.769853 1.18901,-1.189366 2.07352,-1.060981 l 0.70475,0.102291 v -3.781144 c 0,-2.376192 0.0806,-3.781137 0.21684,-3.781137 0.13749,0 0.21685,1.620787 0.21685,4.428669 0,4.402345 -0.003,4.43248 -0.53974,5.070104 -0.60875,0.723458 -1.26616,0.922179 -2.11486,0.639272 z m -60.93549,-7.042936 c -1.01184,-1.118064 0.36016,-3.07362 1.98871,-2.834601 0.82039,0.120411 0.81693,0.224972 0.1454,-4.380543 -0.4676,-3.206873 -0.49538,-3.947075 -0.133,-3.542618 0.17242,0.192451 1.31313,8.230409 1.30884,9.222677 -0.004,0.935062 -0.83644,1.717701 -1.96183,1.844545 -0.77294,0.08712 -1.04593,0.02442 -1.34812,-0.30946 z m 27.89287,-2.219523 c -1.49493,-0.618954 -0.24444,-3.260874 1.54344,-3.260874 0.60708,0 0.688,-0.06458 0.61161,-0.487897 -0.32699,-1.812123 -0.82822,-7.142694 -0.68021,-7.234166 0.0995,-0.06147 0.23786,0.06516 0.30747,0.281407 0.3144,0.976909 0.65869,1.399101 1.71037,2.097374 1.19858,0.795817 1.84637,1.814729 1.84637,2.904206 0,0.782245 -0.40645,2.005393 -0.66639,2.005393 -0.10464,0 -0.0951,-0.250304 0.0212,-0.556233 0.57918,-1.523348 0.002,-2.959617 -1.44827,-3.600929 -0.53813,-0.238044 -1.02638,-0.384853 -1.08498,-0.326254 -0.0586,0.0586 0.0948,1.526905 0.34093,3.262882 0.30961,2.183896 0.38438,3.322285 0.24267,3.695 -0.36037,0.947839 -1.82695,1.599887 -2.74423,1.220091 z m 53.2922,-1.211182 c -1.10159,-1.400454 1.01756,-3.200464 2.52491,-2.144663 0.38536,0.269908 0.50511,0.280923 0.58956,0.05426 0.77327,-2.07595 1.59028,-4.848763 1.46305,-4.965339 -0.19751,-0.18096 -5.97019,-1.510505 -6.0803,-1.400396 -0.0428,0.04278 -0.49073,1.456135 -0.99536,3.140709 -0.96348,3.216347 -1.28833,3.816656 -2.18741,4.042308 -1.79254,0.449902 -2.97957,-1.184949 -1.75182,-2.412703 0.58421,-0.584213 1.99026,-0.741988 2.45658,-0.275662 0.14113,0.14113 0.31768,0.195516 0.39234,0.120862 0.0747,-0.07466 0.6674,-1.822089 1.31719,-3.883181 0.64981,-2.061099 1.22677,-3.792749 1.28214,-3.848119 0.10222,-0.102225 6.84267,1.467298 7.01637,1.633777 0.22099,0.211801 -2.83302,9.5165 -3.27953,9.991784 -0.68598,0.730203 -2.1537,0.701575 -2.74772,-0.0536 z m 5.07414,-8.135749 c 0.0786,-0.127206 0.0917,-0.282555 0.029,-0.345227 -0.10236,-0.102364 -5.69714,-1.574743 -6.03003,-1.586922 -0.0756,-0.0025 -0.18847,0.190541 -0.25098,0.429568 -0.0828,0.316698 0.0133,0.466425 0.35418,0.551922 4.55657,1.142733 5.66839,1.32194 5.89785,0.950659 z m -72.20251,4.661082 c -0.42298,-0.422971 -0.42468,-0.602719 -0.0133,-1.39834 0.39525,-0.764329 0.93358,-1.079879 1.84227,-1.079879 h 0.6804 l -0.12833,-1.13843 c -0.21713,-1.92633 -0.55304,-5.876199 -0.55323,-6.505324 -2.5e-4,-0.822601 0.25507,-0.737284 0.70239,0.234724 0.20752,0.450919 0.81111,1.144896 1.34133,1.542166 1.17436,0.879913 1.36525,1.338519 1.53937,3.698425 0.10966,1.486189 0.0708,1.927174 -0.20072,2.276868 -0.31438,0.404899 -0.32796,0.365699 -0.20462,-0.590598 0.0988,-0.765944 0.0398,-1.165074 -0.23363,-1.58248 -0.34583,-0.527794 -1.54626,-1.402289 -1.92736,-1.404043 -0.0966,-4.43e-4 -0.10772,1.161279 -0.0247,2.581607 0.15084,2.579034 0.15031,2.583157 -0.41077,3.144242 -0.65192,0.651917 -1.86688,0.763403 -2.40922,0.221062 z m 4.84837,-6.217344 c -0.11095,-0.38682 -0.20172,-0.72713 -0.20172,-0.756232 0,-0.119739 -1.74322,-1.142585 -1.94728,-1.142585 -0.49088,0 -0.16206,0.555765 0.91727,1.550385 0.62615,0.576993 1.20481,1.049679 1.28593,1.050408 0.0811,7.38e-4 0.0567,-0.315156 -0.0542,-0.701976 z"
       id="path1"
       inkscape:export-filename="pw.svg"
       inkscape:export-xdpi="96"
       inkscape:export-ydpi="96" /></g></svg>
